<?xml version="1.0" standalone="no"?>
<!DOCTYPE svg PUBLIC "-//W3C//DTD SVG 20010904//EN"
 "http://www.w3.org/TR/2001/REC-SVG-20010904/DTD/svg10.dtd">
<svg version="1.0" xmlns="http://www.w3.org/2000/svg"
 width="674.000000pt" height="636.000000pt" viewBox="0 0 674.000000 636.000000"
 preserveAspectRatio="xMidYMid meet">

<g transform="translate(0.000000,636.000000) scale(0.100000,-0.100000)"
fill="#000000" stroke="none">
<path d="M0 3180 l0 -3180 3370 0 3370 0 0 3180 0 3180 -3370 0 -3370 0 0
-3180z m4464 1016 c73 -36 140 -92 211 -178 218 -260 444 -493 680 -698 72
-62 149 -129 171 -149 37 -32 43 -43 49 -93 10 -78 -1 -130 -46 -215 -22 -41
-39 -83 -39 -94 0 -11 18 -51 41 -89 78 -131 106 -247 88 -358 -10 -66 -55
-168 -84 -192 -23 -19 -45 -65 -45 -94 0 -14 16 -43 38 -69 58 -66 80 -107 98
-178 33 -130 -3 -273 -86 -339 -56 -44 -61 -81 -21 -156 76 -144 5 -320 -143
-355 -76 -18 -85 -25 -117 -97 -17 -37 -47 -84 -67 -105 -102 -106 -284 -132
-405 -57 -70 44 -100 40 -183 -21 -106 -79 -183 -112 -276 -117 -88 -5 -142
10 -215 60 -66 45 -109 40 -179 -22 -32 -28 -81 -59 -113 -71 -122 -46 -284
-32 -331 29 -28 36 -58 51 -98 52 -26 0 -42 -9 -77 -45 -63 -65 -121 -89 -220
-89 -97 -1 -125 6 -167 43 -52 44 -81 45 -162 3 -60 -32 -79 -37 -135 -37
-110 1 -198 59 -221 145 -21 77 -81 93 -194 51 -52 -20 -64 -21 -113 -11 -72
15 -138 76 -148 135 -18 109 -45 128 -167 119 -94 -7 -144 3 -204 42 -55 35
-84 83 -105 167 -28 113 -66 135 -175 100 -50 -15 -53 -15 -85 4 -73 42 -107
129 -92 236 11 85 -1 116 -57 152 -77 48 -110 181 -75 300 13 48 27 69 71 111
72 70 73 100 8 180 -59 72 -87 135 -87 199 -1 70 18 119 69 176 36 41 44 57
44 90 0 34 -7 48 -46 89 -55 59 -77 122 -68 196 3 28 10 57 15 65 7 11 83 -11
409 -120 220 -74 449 -155 508 -179 295 -123 449 -121 644 7 100 65 107 72
438 375 117 108 631 597 877 835 122 118 241 227 264 243 96 64 221 74 323 24z"/>
<path d="M4235 3579 c-65 -19 -87 -102 -41 -156 35 -41 42 -78 22 -108 -14
-21 -24 -25 -70 -25 -65 0 -102 -25 -112 -75 -24 -129 190 -173 304 -62 100
96 116 233 42 350 -43 68 -90 93 -145 76z"/>
<path d="M4901 3076 c-56 -31 -65 -94 -21 -152 33 -44 39 -94 13 -115 -9 -8
-39 -14 -68 -14 -59 0 -81 -14 -102 -62 -11 -28 -11 -38 1 -67 21 -50 55 -68
129 -69 78 -1 139 25 189 81 69 76 86 208 40 298 -51 98 -117 135 -181 100z"/>
<path d="M3325 2869 c-62 -36 -73 -104 -25 -164 33 -42 37 -70 15 -102 -13
-19 -24 -22 -72 -21 -51 1 -58 -1 -84 -30 -53 -59 -26 -141 53 -163 204 -55
377 165 289 367 -40 93 -121 144 -176 113z"/>
<path d="M1525 2571 c-133 -81 -158 -272 -51 -398 67 -80 213 -110 275 -57 26
21 31 33 31 68 0 47 -33 95 -67 97 -59 4 -80 10 -95 30 -27 32 -22 55 22 100
33 34 40 48 40 81 0 81 -84 123 -155 79z"/>
<path d="M4099 2351 c-39 -39 -38 -82 1 -140 52 -77 34 -126 -44 -123 -61 3
-101 -19 -116 -62 -14 -43 -5 -77 26 -107 19 -18 39 -24 90 -27 113 -7 202 43
242 136 44 102 37 190 -20 277 -53 80 -126 98 -179 46z"/>
<path d="M5035 1978 c-33 -19 -44 -41 -45 -85 0 -30 7 -50 24 -70 36 -42 41
-74 18 -103 -16 -20 -27 -23 -70 -21 -65 3 -101 -25 -109 -85 -5 -36 -1 -46
25 -75 27 -30 36 -33 96 -37 89 -6 142 15 199 78 24 26 49 67 56 91 31 102 2
219 -70 284 -42 37 -85 45 -124 23z"/>
<path d="M1655 1774 c-80 -42 -129 -126 -128 -224 1 -132 85 -236 212 -260 63
-12 103 -4 136 26 59 54 12 164 -70 164 -41 0 -85 36 -85 70 0 11 18 38 40 60
32 31 40 46 40 75 0 47 -14 71 -50 90 -37 19 -57 19 -95 -1z"/>
<path d="M3156 1529 c-35 -41 -33 -83 5 -139 23 -34 29 -52 25 -75 -8 -38 -20
-45 -84 -45 -59 0 -95 -25 -108 -74 -17 -70 35 -119 134 -124 58 -3 74 0 121
25 100 52 157 177 132 287 -25 107 -87 176 -159 176 -33 0 -45 -6 -66 -31z"/>
<path d="M4197 1452 c-37 -38 -36 -84 3 -141 33 -49 35 -59 18 -96 -10 -23
-17 -25 -70 -25 -49 0 -63 -4 -83 -24 -49 -49 -43 -115 15 -153 25 -18 47 -23
95 -23 202 0 317 224 210 407 -51 85 -135 110 -188 55z"/>
</g>
</svg>
