<?xml version="1.0" standalone="no"?>
<!DOCTYPE svg PUBLIC "-//W3C//DTD SVG 20010904//EN"
 "http://www.w3.org/TR/2001/REC-SVG-20010904/DTD/svg10.dtd">
<svg version="1.0" xmlns="http://www.w3.org/2000/svg"
 width="2400.000000pt" height="1600.000000pt" viewBox="0 0 2400.000000 1600.000000"
 preserveAspectRatio="xMidYMid meet">
<metadata>
Created by potrace 1.16, written by Peter Selinger 2001-2019
</metadata>
<g transform="translate(0.000000,1600.000000) scale(0.100000,-0.100000)"
fill="#000000" stroke="none">
<path d="M0 10315 c0 -5406 1 -5686 18 -5692 24 -9 31 -23 26 -53 -4 -18 2
-34 20 -55 22 -26 26 -38 23 -87 -2 -46 2 -62 22 -88 17 -23 23 -45 23 -76 -1
-34 2 -44 14 -44 27 0 84 -65 84 -95 0 -19 12 -40 36 -63 41 -40 65 -90 58
-119 -3 -12 5 -35 20 -58 14 -21 26 -45 26 -53 0 -9 19 -48 42 -86 40 -66 43
-76 44 -146 1 -46 8 -91 19 -117 16 -41 16 -43 -5 -73 -12 -16 -20 -38 -19
-47 6 -39 -14 -70 -71 -111 l-59 -43 -37 16 c-20 8 -38 15 -40 15 -2 0 -4 -17
-4 -37 0 -48 -30 -109 -81 -164 -23 -24 -54 -62 -69 -84 -15 -22 -42 -53 -59
-69 l-31 -30 0 -286 0 -286 133 -219 c74 -121 217 -350 318 -510 102 -159 266
-420 363 -580 98 -159 188 -303 200 -320 12 -16 27 -41 34 -55 7 -14 93 -153
191 -310 l177 -285 487 -3 c486 -2 487 -2 475 18 -7 11 -21 20 -31 20 -54 0
-150 77 -162 130 -3 16 -20 43 -36 60 -23 23 -29 38 -25 55 5 18 0 25 -24 35
-34 14 -35 18 -15 84 14 45 14 53 -2 88 -12 26 -26 40 -43 44 -70 14 -101 62
-68 102 16 20 16 129 -1 160 -6 11 -27 26 -47 32 -30 10 -43 9 -79 -5 -57 -21
-76 -11 -109 57 -28 57 -51 185 -42 224 8 32 55 54 115 54 27 0 53 4 56 10 3
5 15 10 25 10 18 0 19 7 16 83 -2 70 -6 88 -24 107 -22 24 -31 93 -13 104 20
13 18 46 -5 77 -29 40 -31 88 -4 122 16 20 18 30 10 52 -19 49 -12 76 29 114
49 46 61 104 30 137 -45 48 -15 146 47 152 22 2 40 -6 72 -34 42 -35 45 -36
81 -25 21 6 63 11 92 11 37 0 63 6 84 20 17 11 40 20 52 20 32 0 53 10 53 26
0 20 38 38 95 44 l50 5 -4 118 c-3 126 3 147 44 147 12 0 39 -11 59 -25 44
-30 46 -30 46 -6 0 24 34 67 60 74 46 12 109 -79 110 -157 0 -24 10 -57 25
-83 25 -42 27 -43 53 -29 36 18 117 35 167 34 55 -1 96 11 122 35 19 17 31 19
76 14 45 -6 55 -4 70 13 12 14 29 20 61 20 25 0 48 5 52 11 4 7 23 9 51 5 36
-5 48 -2 66 15 22 21 41 21 117 3 19 -4 33 1 54 21 26 24 126 75 147 75 4 0
20 -11 35 -25 30 -28 46 -30 128 -14 53 11 59 10 88 -11 24 -18 32 -20 39 -9
21 34 57 160 62 214 6 73 22 109 54 124 42 19 82 13 110 -17 22 -24 25 -33 20
-81 -3 -29 -3 -51 0 -47 22 21 73 -58 73 -114 0 -26 6 -33 33 -44 41 -18 144
-12 167 9 19 18 63 20 92 4 16 -9 23 -7 35 10 10 15 25 21 54 21 21 0 47 5 57
11 14 9 26 7 53 -6 33 -18 73 -25 136 -25 18 1 46 -6 62 -15 17 -8 43 -15 59
-15 34 0 57 -23 104 -102 18 -31 49 -67 68 -80 39 -26 49 -67 31 -120 -9 -25
-8 -35 4 -48 19 -21 19 -54 0 -70 -21 -17 -19 -40 3 -40 35 0 57 -38 59 -99 1
-31 7 -71 14 -89 14 -34 14 -33 -44 -73 -5 -4 2 -24 16 -44 25 -37 25 -39 10
-69 -24 -44 -24 -154 -1 -185 24 -32 23 -53 -7 -81 -30 -28 -31 -43 -7 -78 28
-41 32 -57 20 -96 -9 -30 -9 -39 6 -55 14 -16 16 -32 10 -113 -6 -90 -5 -97
17 -127 23 -31 23 -32 5 -65 -16 -30 -16 -36 -3 -62 8 -16 20 -53 26 -83 13
-62 -1 -96 -44 -107 -21 -5 -25 -12 -25 -40 0 -42 -27 -71 -73 -79 -27 -5 -38
-15 -55 -51 -24 -48 -50 -60 -106 -51 -31 5 -34 3 -40 -23 -3 -16 -17 -36 -30
-45 -21 -14 -31 -15 -61 -5 -44 14 -99 -1 -134 -37 -21 -22 -29 -24 -95 -21
-39 2 -78 7 -86 11 -10 5 -27 -3 -48 -23 -18 -16 -43 -32 -55 -35 -48 -10
-115 -17 -167 -17 -30 0 -95 -1 -145 -2 -49 0 -130 1 -179 2 -56 2 -93 -2
-102 -9 -9 -8 -29 -9 -57 -4 -50 9 -65 8 -182 -3 -106 -11 -125 -16 -172 -48
-30 -20 -44 -23 -87 -18 -45 4 -58 1 -111 -30 l-60 -35 6478 -1 6478 0 -38 46
c-51 61 -115 102 -172 109 -25 4 -57 8 -71 11 -14 3 -90 47 -168 99 -79 51
-175 106 -214 122 -45 17 -90 44 -122 74 -68 61 -87 70 -172 80 -74 8 -117 26
-189 78 -22 15 -84 54 -139 86 -54 32 -124 79 -155 105 -74 61 -92 70 -163 80
-89 13 -125 42 -178 141 -56 104 -141 193 -235 244 -112 61 -133 77 -172 132
-32 47 -81 83 -113 83 -29 0 -78 43 -103 88 -21 39 -39 56 -84 80 -93 49 -123
92 -123 177 0 26 -13 76 -30 120 -29 73 -49 165 -42 195 3 15 105 60 137 60
15 0 16 -5 9 -38 -22 -99 12 -339 57 -396 11 -13 41 -32 68 -41 51 -17 83 -46
123 -110 18 -29 44 -50 91 -74 43 -22 82 -53 112 -88 26 -30 77 -74 114 -98
56 -37 90 -73 187 -196 65 -83 130 -157 144 -164 15 -8 58 -19 96 -26 88 -15
115 -29 190 -98 45 -42 100 -76 215 -133 85 -43 188 -91 229 -108 42 -16 111
-51 155 -76 44 -26 124 -71 178 -100 107 -59 172 -101 230 -150 27 -22 59 -37
107 -48 88 -20 147 -50 240 -122 40 -32 108 -77 149 -101 l76 -43 630 0 630 0
-100 35 c-212 74 -363 165 -379 231 -8 31 11 71 45 96 38 29 158 34 294 14 61
-9 144 -19 186 -22 59 -5 81 -12 103 -31 33 -28 31 -32 -21 -44 -55 -12 -142
-10 -263 6 -133 18 -201 19 -225 2 -17 -13 -16 -16 18 -41 75 -58 311 -136
468 -156 96 -12 118 -22 126 -61 l5 -29 128 0 128 0 -15 39 c-35 89 22 169
177 251 123 65 233 176 288 290 69 145 117 399 128 680 3 85 16 237 28 338 20
160 25 185 46 207 58 62 127 2 151 -133 14 -79 25 -104 90 -208 66 -104 102
-185 131 -293 18 -66 22 -118 28 -396 7 -304 8 -325 33 -410 28 -95 47 -225
47 -312 l0 -53 2205 0 2205 0 0 1670 c0 919 -1 1670 -2 1671 -2 0 -48 4 -104
8 -93 6 -108 11 -195 53 -52 25 -133 65 -182 88 -197 95 -390 235 -587 426
-69 67 -165 156 -215 200 -49 43 -124 110 -165 148 -127 117 -273 210 -362
230 -55 12 -101 -79 -77 -151 18 -55 169 -223 397 -440 513 -491 551 -539 643
-821 101 -313 139 -505 125 -646 -4 -39 -11 -154 -15 -256 -7 -177 -9 -190
-45 -295 -55 -165 -141 -332 -261 -505 -194 -281 -283 -378 -457 -503 -90 -64
-280 -163 -388 -201 -268 -96 -553 -81 -1000 54 -91 27 -181 53 -200 58 -45
11 -68 49 -55 88 17 48 53 50 190 9 355 -105 473 -131 656 -142 182 -10 323
21 522 116 177 85 308 186 434 336 128 152 296 402 367 546 89 179 107 243
117 429 5 80 12 187 15 237 11 157 -9 294 -72 498 -31 99 -73 216 -94 260 -55
117 -185 290 -288 382 -168 152 -536 509 -610 593 -100 114 -116 147 -117 235
0 114 60 214 144 240 43 13 130 6 177 -14 77 -35 238 -146 316 -218 40 -38
136 -125 213 -193 77 -69 201 -184 275 -255 74 -72 155 -145 180 -162 72 -49
384 -222 432 -239 47 -17 248 -64 272 -64 14 0 16 20 16 138 l0 138 -72 18
c-95 24 -238 91 -335 158 -44 29 -167 140 -278 248 -376 367 -460 446 -585
546 -69 56 -156 130 -195 164 -93 84 -182 141 -291 186 -163 68 -319 57 -460
-34 -64 -42 -97 -78 -186 -207 -104 -151 -129 -232 -108 -352 23 -137 124
-352 226 -483 59 -76 141 -154 424 -401 291 -254 493 -448 560 -538 64 -87
123 -207 156 -317 51 -167 35 -373 -50 -649 -133 -438 -256 -595 -596 -769
-213 -109 -378 -156 -548 -156 -116 0 -206 15 -432 70 -246 60 -340 104 -340
160 0 22 45 60 70 60 9 0 48 -14 86 -31 83 -38 241 -79 419 -109 231 -40 382
-18 615 88 360 165 481 305 596 694 79 267 102 448 70 563 -32 117 -72 209
-107 249 -20 22 -46 61 -59 86 -33 66 -239 265 -520 506 -135 115 -283 248
-330 295 -184 184 -294 372 -350 595 -19 75 -22 107 -18 204 3 68 11 129 20
150 23 55 164 237 247 320 155 154 357 214 560 164 88 -21 231 -90 312 -150
186 -137 495 -412 829 -739 140 -138 285 -272 322 -298 78 -56 210 -119 291
-140 l57 -15 0 187 0 187 -83 37 c-46 21 -116 60 -157 87 -103 68 -234 161
-240 170 -24 36 -636 670 -695 720 -155 132 -356 251 -501 298 -241 78 -522
40 -840 -114 -150 -73 -190 -104 -220 -168 -13 -29 -36 -63 -50 -77 -14 -13
-32 -36 -40 -51 -33 -64 -134 -536 -134 -628 0 -113 80 -358 154 -474 54 -84
94 -128 380 -416 496 -501 735 -801 803 -1005 24 -72 27 -95 27 -225 1 -164
-11 -219 -75 -359 -74 -161 -189 -289 -312 -346 -175 -83 -356 -111 -525 -81
-128 22 -218 60 -380 157 -183 110 -271 175 -278 205 -13 51 49 99 95 75 11
-7 68 -49 125 -96 113 -90 213 -144 356 -191 73 -24 102 -28 205 -28 295 -1
485 114 605 366 55 115 74 215 67 352 -6 121 -25 170 -108 296 -31 45 -40 68
-37 89 4 25 0 30 -21 34 -17 4 -49 34 -94 92 -136 170 -407 450 -597 617 -89
77 -265 281 -351 405 -81 118 -154 333 -166 488 -10 133 59 502 124 664 41
103 114 230 157 273 47 46 137 101 290 174 213 102 366 138 581 138 232 -1
384 -51 605 -199 187 -125 293 -220 650 -582 337 -341 451 -440 596 -516 40
-20 75 -37 78 -37 3 0 6 96 6 214 0 186 -2 215 -16 220 -58 22 -166 117 -429
376 -403 397 -593 547 -914 720 -142 77 -242 115 -411 158 -91 22 -126 26
-270 26 -139 1 -179 -3 -255 -22 -374 -94 -625 -245 -889 -538 -154 -170 -167
-200 -241 -550 -40 -191 -45 -227 -45 -346 0 -147 21 -344 45 -426 22 -74 107
-269 168 -387 49 -94 61 -108 232 -275 463 -450 607 -597 740 -750 155 -179
189 -232 200 -309 17 -125 -76 -283 -208 -353 -37 -20 -56 -23 -162 -23 -112
0 -125 2 -192 31 -108 47 -382 242 -417 297 -8 12 -18 39 -21 60 l-7 37 54 0
c51 0 56 -3 98 -46 81 -83 251 -200 350 -241 47 -19 180 -25 232 -10 35 9 94
61 113 97 45 86 36 176 -23 250 -153 190 -472 523 -781 814 -221 208 -272 268
-336 396 -171 339 -224 568 -212 914 5 137 11 184 41 316 78 333 103 387 265
571 193 220 353 345 597 467 222 111 410 156 654 157 146 0 177 -4 271 -27
312 -79 598 -226 912 -471 155 -121 251 -209 537 -491 140 -138 270 -259 288
-269 l32 -18 0 492 0 491 -54 59 c-104 112 -225 362 -288 597 -17 64 -34 120
-37 124 -4 4 -123 21 -266 38 -552 65 -643 90 -743 204 -33 38 -57 105 -47
135 4 14 -6 28 -35 51 -56 44 -73 82 -68 142 6 58 31 97 79 120 62 30 278 41
700 33 l387 -7 41 86 c53 115 149 260 250 379 l81 96 0 936 0 935 -36 -40
c-45 -49 -189 -145 -264 -176 -99 -41 -267 -58 -550 -58 -223 0 -282 3 -470
28 -144 19 -264 29 -365 30 -139 1 -160 4 -293 39 -355 94 -472 138 -528 200
-52 57 -67 100 -68 187 -1 83 9 110 75 196 68 88 81 132 85 272 2 85 10 147
24 198 27 101 105 271 180 396 94 155 279 416 326 457 88 78 561 398 639 433
184 83 407 144 605 168 210 25 468 12 608 -29 l32 -10 0 1915 0 1914 -3646 0
-3647 0 6 -42 c3 -24 26 -173 51 -333 25 -159 66 -438 91 -620 25 -181 50
-357 55 -390 26 -153 110 -768 110 -807 0 -24 4 -58 10 -77 5 -18 12 -67 15
-109 2 -41 9 -80 15 -87 5 -6 16 -76 25 -156 8 -79 22 -171 30 -204 14 -61 57
-357 54 -372 -1 -4 3 -21 9 -36 24 -58 9 -126 -32 -145 -12 -5 -48 -15 -79
-22 -86 -17 -139 6 -177 79 -7 15 -14 78 -16 156 -3 83 -12 165 -24 221 -31
136 -71 385 -68 424 1 19 -3 60 -10 90 -13 62 -66 421 -77 520 -4 36 -15 115
-25 175 -11 61 -29 180 -40 265 -80 606 -195 1409 -207 1453 -4 16 -171 17
-3331 16 -3260 -1 -3325 -2 -3219 -20 193 -32 170 -23 547 -228 259 -142 344
-202 487 -348 226 -230 437 -589 488 -829 10 -51 20 -174 26 -349 6 -148 15
-286 20 -307 9 -36 29 -60 104 -128 21 -19 49 -59 63 -89 32 -70 28 -158 -12
-225 -35 -60 -58 -76 -178 -124 -133 -53 -282 -75 -508 -76 -175 -1 -551 25
-712 49 -53 8 -194 26 -314 40 -247 29 -266 33 -413 80 -58 18 -134 41 -169
49 -35 9 -82 29 -105 45 -23 15 -62 38 -86 51 -84 42 -169 147 -310 383 -96
159 -156 304 -316 762 -22 61 -51 127 -67 149 -40 55 -63 126 -98 293 -66 316
-83 472 -60 554 13 47 71 113 128 147 44 25 53 27 147 24 273 -9 250 -12 355
39 52 26 102 49 110 52 8 3 -329 6 -750 6 l-765 1 80 -34 c244 -101 417 -221
471 -328 36 -72 63 -223 66 -376 3 -126 2 -131 -21 -156 -18 -19 -35 -26 -61
-26 -31 0 -62 18 -191 110 -173 124 -234 157 -364 195 -196 58 -354 23 -385
-86 -14 -48 -12 -153 4 -230 14 -68 9 -137 -14 -179 -14 -26 -75 -27 -113 -1
-106 70 -235 389 -245 607 -5 114 5 170 48 282 38 100 86 156 164 193 l61 29
-822 0 c-453 0 -823 -2 -823 -5 0 -2 18 -29 40 -61 21 -31 46 -78 56 -106 19
-57 21 -152 4 -202 -17 -51 -79 -103 -132 -110 -221 -27 -213 -23 -286 -155
-55 -99 -97 -143 -151 -159 -95 -29 -167 2 -213 92 -36 71 -227 351 -289 425
-51 60 -63 70 -76 60 -25 -22 -41 -63 -73 -190 -17 -68 -36 -137 -42 -152 -13
-34 -55 -57 -104 -57 -31 0 -44 7 -77 42 -70 73 -81 112 -80 273 1 97 6 158
18 200 9 33 19 70 22 83 l5 22 -361 0 c-350 0 -361 -1 -352 -19 6 -10 55 -65
110 -122 55 -57 110 -123 122 -145 22 -40 22 -43 5 -68 -26 -40 -59 -48 -186
-44 -132 4 -129 3 -298 116 -154 103 -195 141 -233 218 l-32 64 -138 0 c-77 0
-139 -1 -139 -2 0 -2 7 -21 15 -43 21 -58 18 -210 -6 -366 -27 -178 -28 -246
-5 -281 23 -35 50 -43 246 -68 296 -38 290 -37 322 -66 30 -29 37 -69 17 -105
-15 -29 -183 -136 -232 -150 -73 -20 -286 9 -490 67 -205 58 -224 53 -440
-101 -66 -47 -203 -89 -292 -88 -78 1 -128 17 -306 101 -155 74 -209 128 -209
214 0 18 12 76 26 128 14 52 41 155 59 228 19 73 52 172 74 220 22 48 45 108
50 134 6 25 21 76 35 112 l24 66 -674 0 -674 0 0 -5685z m14535 5362 c160 -48
313 -93 340 -102 28 -9 89 -25 136 -35 47 -10 120 -32 163 -49 43 -17 85 -31
94 -31 9 0 208 -53 442 -119 234 -66 495 -138 580 -161 183 -49 202 -57 212
-90 19 -69 30 -141 24 -164 -9 -37 -40 -41 -132 -17 -127 33 -879 257 -902
270 -11 6 -41 11 -66 11 -30 0 -93 17 -182 50 -75 28 -150 53 -167 56 -18 3
-52 11 -77 18 -116 35 -641 166 -662 166 -13 0 -67 14 -120 30 -79 25 -101 36
-118 61 -42 59 -35 149 14 185 36 26 114 11 421 -79z m4574 -52 c17 -20 31
-41 31 -47 0 -6 10 -2 23 9 97 89 169 14 126 -134 -12 -42 -16 -80 -13 -108 6
-37 9 -41 28 -38 31 6 135 -14 154 -29 22 -19 123 -35 152 -24 21 7 34 3 69
-18 37 -24 47 -26 70 -16 21 8 35 7 64 -5 20 -8 47 -15 61 -15 13 0 34 -8 47
-19 19 -15 28 -16 56 -8 30 9 38 7 80 -22 46 -33 48 -33 97 -21 28 6 76 10
106 8 52 -3 56 -5 72 -38 14 -27 29 -39 65 -52 27 -9 58 -17 70 -18 12 0 34
-15 51 -36 l30 -36 60 61 c34 34 64 72 68 84 10 33 62 105 84 117 48 26 105 6
126 -45 15 -37 7 -74 -23 -107 -13 -15 -12 -19 7 -38 19 -19 21 -30 17 -69 -3
-25 -8 -55 -12 -66 -8 -26 37 -75 69 -75 11 0 30 -7 40 -15 13 -10 32 -12 60
-9 35 5 47 2 74 -20 26 -23 34 -25 53 -16 17 10 29 8 60 -5 21 -10 45 -15 53
-12 9 4 26 -7 44 -27 28 -32 51 -48 117 -79 17 -8 43 -28 57 -46 15 -17 31
-31 37 -31 29 0 50 -44 57 -119 5 -55 13 -86 30 -111 13 -19 24 -40 24 -46 0
-6 -14 -32 -31 -57 -19 -28 -29 -54 -25 -64 10 -26 -3 -52 -35 -68 -31 -16
-39 -35 -14 -35 37 0 45 -67 14 -124 -11 -21 -20 -50 -19 -65 3 -47 1 -51 -39
-57 l-40 -6 6 -48 c5 -42 3 -49 -22 -69 -36 -28 -76 -124 -72 -176 2 -36 -1
-41 -40 -62 l-41 -24 5 -55 c5 -48 3 -58 -18 -80 -18 -19 -22 -34 -20 -68 2
-33 -3 -50 -21 -72 -36 -43 -57 -107 -51 -152 4 -33 1 -42 -21 -59 -19 -16
-26 -30 -26 -56 0 -20 -5 -59 -11 -87 -12 -55 -37 -80 -80 -80 -20 0 -32 -9
-48 -36 -21 -36 -23 -36 -74 -31 -47 4 -55 2 -85 -24 -38 -34 -75 -37 -115
-10 -28 18 -29 18 -52 -5 -31 -31 -72 -31 -115 1 -37 27 -76 31 -126 13 -27
-10 -38 -8 -73 10 -23 12 -47 22 -53 22 -7 0 -22 10 -35 22 -21 20 -27 21 -56
10 -44 -16 -80 -15 -124 3 -19 8 -46 15 -60 15 -27 0 -58 14 -88 40 -11 9 -36
23 -55 30 -19 7 -48 19 -65 25 -16 7 -51 18 -78 25 -26 7 -51 18 -55 25 -13
22 -67 43 -95 38 -21 -4 -38 3 -74 31 -30 23 -53 34 -64 31 -10 -4 -44 7 -76
22 -50 24 -71 28 -148 29 -71 0 -96 4 -120 20 -24 15 -47 19 -125 19 l-95 0
-15 32 c-12 27 -21 33 -47 33 -52 0 -73 29 -73 98 0 33 -6 66 -13 77 -13 17
-14 16 -20 -14 -8 -39 -63 -121 -81 -121 -7 0 -30 11 -50 25 -45 30 -67 31
-91 5 -10 -11 -27 -20 -38 -20 -21 0 -67 36 -67 52 0 20 -48 71 -84 90 -35 18
-44 19 -102 7 l-64 -13 -55 59 c-30 32 -55 62 -55 66 0 5 -23 9 -50 9 -46 0
-52 3 -70 33 -11 17 -20 38 -20 45 0 6 -18 28 -39 47 -52 47 -73 95 -72 161 0
29 -4 56 -9 59 -13 8 -13 72 0 80 6 4 3 16 -10 32 -11 14 -20 30 -20 35 0 6
17 29 38 53 33 38 37 47 34 86 -3 36 -9 48 -35 64 -18 11 -33 28 -35 38 -6 31
7 65 28 72 11 3 20 12 20 19 0 6 9 29 20 51 33 66 24 112 -30 140 -16 8 -45
15 -64 15 -55 0 -70 31 -63 128 7 102 34 182 69 201 24 14 32 13 85 -4 101
-33 143 -27 143 19 0 12 9 38 20 60 18 32 19 43 10 71 -15 44 -4 80 32 110 28
24 29 28 23 78 -6 44 -3 56 14 79 12 15 30 30 41 33 15 5 20 15 20 41 0 47 45
94 89 94 42 0 74 59 65 122 -5 38 -2 48 20 75 29 35 67 48 95 34 9 -6 29 -32
42 -58 29 -58 35 -63 77 -63 18 0 51 -9 73 -20 25 -13 56 -20 82 -19 23 1 57
-1 74 -5 23 -5 39 -3 55 8 29 20 61 20 99 0 39 -20 55 -13 64 27 8 36 60 156
77 176 18 22 45 14 77 -22z m-7426 -29 c18 -7 48 -30 66 -52 81 -91 94 -205
32 -267 -30 -31 -34 -32 -119 -33 -72 -1 -97 -5 -145 -27 -99 -46 -139 -31
-154 57 -5 32 -2 40 34 73 22 21 56 52 77 68 32 26 38 37 43 84 8 73 40 111
94 111 22 0 54 -6 72 -14z m-6144 -231 c64 -32 154 -164 180 -260 5 -22 18
-105 27 -185 26 -228 1 -418 -81 -616 -109 -263 -218 -397 -405 -493 -162 -84
-268 -153 -364 -236 -97 -86 -156 -117 -224 -118 -66 -1 -92 32 -92 116 0 88
-13 106 -90 132 -109 37 -130 51 -130 87 0 17 9 45 19 62 24 38 109 112 193
168 228 151 311 358 328 823 10 287 24 336 109 397 80 56 158 60 253 12 l52
-27 51 57 c82 93 119 110 174 81z m11626 -443 c146 -45 341 -97 396 -106 20
-4 44 -15 53 -24 23 -26 30 -99 14 -147 -18 -55 -58 -64 -165 -36 -208 54
-272 74 -319 96 -35 17 -68 25 -106 25 -81 0 -92 17 -85 121 6 88 25 124 62
116 11 -3 79 -23 150 -45z m-9323 -17 c200 -27 323 -62 400 -113 46 -30 62
-54 103 -156 18 -45 63 -151 100 -236 59 -134 68 -165 72 -231 11 -155 -38
-176 -214 -90 -249 122 -465 192 -594 195 -96 1 -132 -12 -155 -56 -21 -40
-18 -61 26 -202 44 -141 48 -171 24 -204 -33 -47 -100 -18 -196 86 -93 99
-167 238 -193 361 -9 42 -23 101 -31 132 -8 30 -14 73 -14 95 1 53 37 139 94
218 53 74 108 122 184 160 114 57 203 67 394 41z m5559 -81 l24 -26 -4 -290
c-3 -304 0 -338 40 -338 9 0 30 15 45 33 50 59 82 145 109 297 32 176 40 204
73 253 26 39 95 87 125 87 21 0 55 -36 74 -80 31 -70 104 -385 110 -470 7
-105 -16 -228 -57 -309 -117 -231 -282 -399 -450 -457 -136 -48 -271 -41 -390
18 -126 64 -162 150 -142 341 17 156 52 284 132 483 38 94 81 218 95 275 30
117 51 158 98 188 45 29 88 27 118 -5z m-11296 -35 c62 -17 118 -82 140 -162
20 -73 18 -144 -9 -352 -18 -137 -20 -276 -6 -385 21 -161 23 -252 6 -323 -39
-165 -91 -200 -208 -138 -49 27 -80 35 -116 32 -23 -2 16 -53 78 -104 67 -54
110 -127 117 -200 8 -85 -11 -122 -94 -186 -93 -71 -151 -143 -210 -256 -90
-175 -175 -273 -321 -369 -90 -59 -146 -81 -258 -101 -337 -59 -661 48 -867
284 -63 72 -131 214 -152 316 -23 110 -24 312 -3 385 9 30 22 83 29 118 12 65
14 66 68 56 39 -8 39 -17 5 -131 -24 -77 -27 -106 -28 -238 -1 -167 15 -241
77 -360 88 -166 349 -329 560 -350 114 -12 131 -12 232 -4 161 13 255 52 384
159 83 69 142 151 208 289 51 106 61 120 158 215 162 158 163 177 10 336 -130
134 -145 177 -75 212 54 28 129 23 212 -12 38 -16 72 -30 73 -30 2 0 9 17 16
37 9 29 9 99 -1 331 -8 182 -11 385 -7 528 l7 234 -40 26 c-55 36 -84 31 -260
-50 -80 -37 -164 -69 -186 -73 -36 -5 -62 4 -194 62 -182 80 -215 87 -255 53
-23 -20 -29 -35 -33 -80 -6 -78 12 -134 145 -433 64 -143 135 -306 158 -361
24 -56 61 -133 83 -171 91 -156 156 -337 168 -468 18 -202 -112 -442 -284
-527 -63 -31 -72 -33 -177 -33 -119 0 -198 18 -320 75 -115 52 -234 204 -265
339 -27 114 8 312 77 443 39 75 126 176 179 209 32 20 37 20 51 6 14 -14 9
-24 -51 -104 -118 -156 -176 -302 -176 -449 0 -125 39 -215 133 -301 57 -53
79 -63 210 -103 184 -55 303 -35 408 70 114 114 158 334 99 504 -26 78 -45
111 -122 216 -93 126 -125 192 -213 441 -41 115 -82 223 -90 239 -16 32 -86
221 -111 300 -21 69 -18 198 6 237 39 64 149 111 228 97 46 -8 136 -52 215
-106 82 -56 105 -54 258 17 136 64 243 104 274 105 11 0 38 -5 60 -11z m-277
-715 c3 -28 -1 -34 -35 -50 -63 -31 -50 -74 30 -98 12 -4 17 -16 17 -41 0 -33
-2 -35 -31 -35 -115 0 -180 123 -107 206 36 41 62 54 98 51 20 -2 26 -8 28
-33z m10958 -249 c18 -18 23 -31 19 -46 -4 -11 -7 -45 -7 -75 -1 -94 49 -146
186 -196 135 -48 133 -105 -4 -139 -65 -16 -425 9 -855 60 -265 32 -285 41
-285 131 0 54 -3 61 -30 81 -40 30 -44 46 -19 80 41 58 63 63 289 64 169 1
235 6 375 28 291 45 297 46 331 12z m-8405 -198 c20 -13 48 -48 68 -87 29 -53
35 -78 39 -142 4 -68 2 -84 -21 -130 -15 -29 -59 -96 -99 -148 -39 -52 -224
-327 -410 -610 -186 -283 -351 -528 -365 -543 -22 -24 -32 -28 -57 -23 -34 7
-81 47 -101 87 -21 39 -33 164 -24 249 13 134 73 324 141 448 47 85 192 288
251 351 23 24 34 41 24 38 -133 -47 -162 -52 -312 -52 -136 1 -158 3 -231 28
-96 32 -207 106 -248 166 -37 54 -46 126 -20 159 28 34 75 40 246 34 127 -4
177 -1 293 17 311 50 443 82 655 160 74 27 128 27 171 -2z m5879 -401 c91 -14
183 -32 205 -41 131 -55 338 -236 408 -355 74 -127 136 -332 137 -446 0 -120
-117 -269 -276 -351 -143 -74 -301 -96 -579 -82 -203 10 -230 14 -340 51 -122
41 -162 63 -180 98 -34 65 19 95 230 134 77 14 178 33 225 42 47 9 106 25 133
36 87 37 134 116 125 210 -9 91 -165 291 -288 370 -75 48 -213 171 -255 229
-53 72 -45 111 28 130 50 13 244 1 427 -25z m1170 -22 c98 -25 208 -75 253
-114 33 -29 70 -87 150 -233 118 -215 153 -305 162 -417 8 -90 -13 -219 -46
-288 -53 -110 -173 -203 -404 -313 -179 -86 -283 -111 -460 -113 -119 -1 -145
2 -168 17 -32 21 -44 59 -28 93 11 24 23 31 251 136 197 91 289 234 278 429
-8 139 -67 223 -324 463 -161 151 -193 189 -194 238 -1 77 173 133 380 121 52
-3 119 -12 150 -19z m11957 -274 c48 -21 83 -70 83 -114 0 -16 -14 -54 -32
-84 -27 -47 -33 -70 -38 -145 -8 -103 -18 -117 -85 -117 -66 0 -90 34 -110
163 -5 31 -15 44 -56 74 -58 41 -69 59 -69 107 0 46 46 99 103 120 61 21 153
20 204 -4z m-1637 -685 c49 -25 63 -51 61 -109 -2 -70 8 -94 69 -161 79 -88
87 -131 29 -161 -46 -23 -93 -4 -159 68 -53 56 -59 59 -119 68 -75 11 -108 30
-127 77 -20 46 -13 62 58 145 83 96 117 109 188 73z m-7174 -415 c176 -45 327
-141 468 -296 l96 -106 -31 -29 c-17 -16 -35 -29 -40 -29 -4 0 -32 30 -62 68
-135 169 -303 280 -480 316 -93 20 -142 20 -229 2 -256 -55 -464 -219 -595
-471 -52 -101 -73 -181 -73 -284 0 -146 36 -275 111 -402 58 -98 77 -154 94
-285 18 -136 34 -172 89 -193 34 -13 51 -12 176 9 178 30 220 21 220 -47 0
-70 -64 -151 -156 -196 -24 -11 -44 -26 -44 -32 0 -28 82 -90 316 -240 223
-143 386 -258 527 -375 27 -22 59 -40 73 -40 32 0 88 28 103 52 6 10 28 99 47
196 24 118 43 188 57 209 13 20 72 62 160 115 151 90 187 123 187 170 0 43
-60 98 -136 126 -32 12 -214 54 -404 93 -339 69 -405 81 -625 114 -286 43
-479 155 -572 330 -130 248 -84 449 145 632 123 98 216 133 350 133 136 -1
226 -39 336 -141 41 -39 91 -92 110 -118 80 -108 129 -248 124 -349 -3 -50 -6
-57 -25 -60 -18 -3 -24 4 -33 40 -20 78 -52 162 -93 243 -49 95 -161 214 -247
260 -52 28 -61 30 -170 30 -136 0 -165 -10 -286 -103 -134 -102 -173 -156
-195 -265 -23 -113 21 -234 125 -344 124 -132 238 -173 482 -173 179 0 209 -5
474 -80 113 -32 222 -61 242 -64 66 -12 331 -87 362 -103 17 -8 54 -33 83 -54
68 -51 92 -108 76 -184 -23 -110 -86 -167 -249 -231 -121 -47 -128 -57 -159
-224 -47 -252 -69 -306 -142 -351 -29 -19 -51 -24 -98 -23 -90 1 -172 44 -287
152 -180 169 -280 242 -468 345 -58 31 -126 75 -152 97 -59 51 -128 153 -128
190 0 39 34 77 100 110 32 16 66 40 74 52 15 21 15 23 -3 30 -11 4 -57 -2
-103 -13 -54 -14 -101 -19 -135 -16 -65 7 -146 50 -181 95 -23 31 -27 47 -33
146 -7 128 -28 200 -95 324 -72 134 -96 218 -102 358 -6 156 8 235 62 350 85
179 194 309 339 404 207 137 421 181 623 130z m5340 -161 c47 -28 69 -70 93
-174 12 -49 55 -174 96 -276 84 -210 118 -326 136 -465 26 -213 -11 -310 -146
-378 -135 -67 -295 -61 -454 17 -90 44 -216 166 -296 286 -161 242 -177 370
-91 713 48 193 67 242 107 271 24 17 29 17 60 4 39 -16 105 -85 120 -125 6
-14 23 -98 39 -186 31 -167 62 -251 114 -313 15 -18 36 -33 47 -33 39 0 42 29
35 332 l-8 288 30 30 c36 36 71 38 118 9z m-9906 -885 c0 -18 -98 -183 -174
-294 -47 -69 -138 -204 -202 -300 -146 -220 -825 -1358 -969 -1625 -59 -110
-133 -245 -165 -300 -32 -55 -129 -231 -217 -391 -88 -159 -168 -302 -178
-317 -9 -15 -13 -27 -9 -27 5 0 60 16 122 35 402 123 760 171 992 131 88 -15
285 -77 472 -148 181 -69 426 -260 600 -468 87 -104 271 -370 294 -426 15 -36
73 -271 120 -484 39 -181 45 -450 15 -632 -35 -204 -63 -272 -215 -528 -48
-79 -89 -156 -93 -170 -9 -38 -60 -116 -96 -143 -18 -14 -72 -64 -122 -111
-178 -170 -390 -316 -590 -406 -218 -98 -625 -306 -717 -366 -103 -68 -178
-143 -178 -178 0 -12 7 -32 16 -44 17 -25 84 -62 110 -62 57 0 385 133 704
285 472 225 554 246 868 226 363 -23 491 -50 682 -146 58 -29 147 -69 198 -89
105 -40 174 -85 286 -184 147 -130 256 -267 418 -527 169 -269 225 -438 248
-740 18 -233 -14 -401 -114 -611 -56 -117 -198 -343 -258 -410 -19 -21 -69
-85 -111 -140 -78 -105 -107 -125 -147 -104 -28 15 -36 56 -18 94 9 17 64 92
122 166 188 237 311 442 365 608 31 97 44 222 38 357 -16 300 -71 457 -278
780 -123 193 -131 204 -239 329 -121 141 -266 251 -370 280 -14 4 -83 36 -155
71 -194 95 -302 122 -560 141 -244 18 -292 15 -477 -32 -112 -28 -168 -49
-300 -113 -284 -139 -640 -298 -753 -336 -123 -42 -180 -43 -253 -6 -191 97
-202 272 -27 414 33 26 89 67 125 91 79 52 500 264 738 371 196 88 228 109
442 286 170 141 177 150 311 359 189 296 255 446 280 635 15 112 6 426 -15
540 -49 262 -101 437 -168 566 -137 263 -443 571 -693 696 -33 17 -123 53
-200 81 -368 132 -446 142 -725 97 -231 -38 -350 -63 -496 -106 -177 -51 -290
-102 -413 -184 -145 -96 -229 -127 -358 -133 -99 -4 -104 -4 -138 22 -21 17
-39 41 -46 66 -24 80 16 142 132 202 35 18 52 38 86 98 24 41 43 78 43 81 0 4
-48 -13 -107 -37 -173 -71 -244 -130 -301 -252 -23 -49 -27 -70 -26 -147 0
-155 57 -239 212 -313 72 -34 83 -37 172 -37 93 0 98 1 237 58 78 31 224 96
324 143 281 132 469 188 726 215 203 21 412 -15 581 -100 206 -104 387 -260
540 -466 92 -123 134 -200 217 -390 88 -203 90 -210 87 -439 -3 -298 -30 -429
-131 -642 -64 -134 -118 -213 -210 -305 -131 -131 -218 -181 -621 -362 -345
-154 -468 -214 -635 -309 -82 -46 -184 -102 -225 -123 -102 -52 -151 -89 -243
-183 -114 -118 -156 -227 -143 -377 8 -104 30 -155 128 -303 99 -147 143 -187
243 -222 156 -55 488 -28 690 57 33 14 216 106 407 205 528 273 668 332 857
359 271 38 500 -46 821 -302 309 -247 420 -417 465 -715 49 -330 23 -559 -90
-772 -61 -114 -258 -394 -330 -470 -65 -67 -100 -78 -137 -45 -34 31 -23 67
43 135 76 78 130 147 202 259 180 279 220 426 198 717 -18 242 -45 347 -122
480 -98 166 -524 505 -708 563 -46 14 -105 22 -191 26 -110 5 -132 3 -185 -16
-32 -11 -72 -21 -87 -21 -69 0 -304 -106 -662 -300 -482 -259 -659 -320 -939
-320 -170 0 -299 34 -430 113 -54 33 -133 145 -216 306 -67 132 -85 196 -85
311 0 159 55 295 171 419 86 93 173 156 339 244 76 41 182 98 234 126 129 71
406 202 695 330 264 118 357 173 456 271 240 240 361 646 304 1024 -37 245
-246 625 -446 811 -116 108 -299 216 -439 260 -212 66 -534 44 -810 -57 -47
-17 -179 -73 -295 -125 -115 -53 -266 -118 -335 -146 -121 -49 -128 -51 -225
-51 -114 -1 -194 21 -304 82 -150 82 -231 224 -231 405 0 139 41 237 143 344
83 87 128 113 317 183 91 33 173 69 183 79 19 18 229 453 222 459 -2 2 -43
-14 -92 -36 -48 -23 -178 -77 -287 -122 -309 -124 -570 -282 -667 -403 -53
-65 -140 -247 -170 -352 -66 -237 24 -597 201 -798 43 -48 136 -101 240 -137
222 -75 496 -66 759 25 54 19 194 82 310 139 117 58 248 119 291 135 244 94
664 48 914 -101 114 -67 162 -124 225 -263 108 -239 135 -346 134 -535 -1
-151 -30 -277 -95 -409 -35 -73 -57 -101 -148 -191 -59 -58 -132 -121 -164
-140 -31 -19 -85 -55 -119 -79 -42 -31 -127 -71 -267 -127 -648 -258 -756
-307 -912 -411 -207 -139 -346 -286 -418 -446 -77 -170 -108 -445 -79 -692 14
-121 33 -175 75 -216 19 -19 43 -52 53 -74 25 -57 79 -101 290 -240 271 -178
298 -189 492 -205 234 -19 370 14 758 187 463 206 823 335 1091 389 340 69
698 -122 866 -461 56 -114 68 -193 54 -344 -16 -170 -50 -274 -132 -402 -73
-114 -228 -254 -438 -393 -69 -46 -92 -56 -120 -54 -25 2 -38 10 -49 30 -27
48 -8 74 105 138 141 80 185 111 265 193 155 156 209 264 239 476 12 88 -1
207 -31 285 -50 125 -179 272 -301 340 -35 19 -99 47 -143 62 -72 24 -90 26
-175 21 -52 -3 -121 -12 -153 -19 -52 -11 -62 -10 -88 4 -24 14 -29 15 -29 3
0 -23 -36 -41 -175 -85 -199 -64 -460 -172 -669 -277 -274 -137 -580 -233
-745 -233 -198 0 -362 36 -491 107 -97 54 -306 192 -380 252 -86 69 -212 213
-245 278 -49 101 -80 461 -55 645 34 256 135 466 304 633 127 127 407 303 641
404 93 40 385 164 510 216 374 157 583 311 674 496 60 123 75 192 75 339 0
174 -37 331 -110 471 -43 82 -132 190 -183 225 -52 34 -154 68 -276 93 -280
57 -490 31 -715 -89 -191 -102 -366 -183 -465 -215 -253 -83 -483 -94 -718
-34 -103 26 -273 99 -317 137 -44 37 -152 210 -202 324 -80 179 -115 403 -89
568 15 97 61 231 119 350 39 81 60 109 136 185 156 155 320 250 688 398 119
48 264 110 322 137 57 28 113 50 123 50 11 0 29 10 40 23 29 32 174 319 158
313 -8 -3 -114 -37 -237 -76 -123 -39 -299 -96 -392 -126 -176 -57 -370 -143
-495 -221 -216 -135 -504 -348 -599 -443 -69 -69 -168 -276 -211 -445 -12 -44
-33 -145 -47 -225 -46 -258 -27 -386 91 -607 96 -182 210 -325 349 -443 85
-71 85 -71 266 -131 211 -69 338 -96 493 -108 122 -9 372 2 452 19 28 7 154
63 280 125 337 167 522 222 720 213 176 -8 294 -97 360 -271 73 -196 41 -370
-95 -507 -83 -85 -164 -131 -400 -232 -506 -215 -742 -340 -985 -523 -174
-131 -293 -242 -382 -355 -198 -254 -269 -449 -280 -780 -11 -309 36 -509 193
-837 85 -177 129 -223 357 -376 285 -190 308 -201 556 -275 l156 -46 200 0
c227 1 363 16 450 49 33 12 222 98 420 190 372 172 579 258 819 340 125 42
145 47 210 43 42 -2 87 -12 111 -23 56 -27 135 -110 170 -181 26 -52 30 -69
30 -144 0 -78 -3 -92 -37 -164 -62 -129 -171 -223 -446 -385 -69 -41 -75 -43
-127 -36 -30 3 -55 9 -55 13 0 4 13 29 28 56 24 44 34 53 94 77 73 30 213 121
294 193 95 83 147 220 119 313 -20 67 -86 131 -154 149 -64 16 -95 9 -335 -80
-294 -109 -604 -243 -934 -402 -231 -112 -339 -134 -661 -134 -186 0 -239 8
-436 66 -228 67 -360 136 -613 317 -154 110 -222 185 -299 327 -184 344 -251
611 -240 966 6 198 28 319 86 470 100 259 346 543 677 781 192 138 557 330
919 483 257 109 320 144 398 221 82 82 108 136 108 222 0 99 -59 241 -130 313
-54 55 -175 59 -396 13 -159 -33 -161 -34 -435 -175 -182 -95 -255 -119 -409
-139 -160 -21 -391 -17 -547 10 l-32 5 -102 -192 c-180 -339 -243 -448 -308
-528 -52 -66 -74 -85 -134 -114 -76 -39 -119 -44 -172 -22 -31 13 -37 12 -67
-6 -77 -47 -137 -43 -203 14 -59 51 -59 91 -2 272 38 118 194 510 315 789 l21
48 -81 87 c-141 151 -298 410 -359 592 -12 36 -27 104 -33 152 -10 78 -8 106
12 240 34 221 65 346 115 470 115 283 197 371 621 665 159 110 190 130 317
199 136 75 286 137 424 178 63 18 116 35 117 37 2 2 27 67 56 144 71 184 162
403 262 628 45 100 112 256 149 347 80 194 273 590 297 608 22 16 78 16 91 -1
27 -33 23 -62 -18 -125 -56 -87 -83 -144 -225 -461 -228 -512 -461 -1082 -445
-1089 4 -1 98 27 208 63 111 36 206 64 211 61 4 -3 15 0 24 7 18 13 149 264
413 787 96 190 196 383 224 430 27 47 56 97 64 113 31 56 116 26 116 -42 0
-13 -40 -90 -89 -170 -49 -80 -118 -207 -153 -281 -36 -74 -141 -283 -235
-465 -94 -181 -324 -636 -511 -1010 -188 -374 -378 -749 -422 -832 -44 -84
-78 -153 -74 -153 18 0 285 144 302 163 40 45 406 677 593 1025 177 329 321
573 703 1197 98 160 235 382 304 495 177 288 318 506 369 566 36 44 51 54 100
67 70 18 73 19 73 11z m-5920 -134 c58 -20 77 -22 185 -16 252 13 414 -35 691
-205 162 -98 243 -137 349 -164 267 -70 436 -175 508 -318 79 -154 75 -307
-10 -469 -71 -135 -145 -193 -285 -222 -43 -8 -108 -31 -146 -50 -93 -47 -165
-66 -249 -67 -85 -1 -122 16 -154 68 -21 33 -24 54 -30 203 -9 206 -33 290
-119 415 -81 117 -308 304 -549 453 -117 71 -366 253 -393 286 -24 29 -22 72
3 97 18 18 30 21 78 16 31 -3 85 -15 121 -27z m-455 -27 c136 -30 230 -84 375
-213 155 -138 374 -324 430 -366 30 -23 126 -111 212 -195 117 -115 163 -166
178 -202 28 -62 75 -442 61 -481 -14 -36 -33 -43 -167 -61 -164 -23 -310 -17
-429 19 -150 44 -146 41 -325 337 -90 149 -261 305 -464 423 -50 29 -273 146
-496 261 -392 201 -450 234 -450 261 0 29 54 74 123 103 82 34 187 54 361 71
104 10 176 25 301 61 41 11 204 2 290 -18z m16991 -158 c256 -88 335 -110 472
-129 118 -16 163 -39 192 -97 11 -21 20 -40 20 -43 0 -3 -20 -19 -44 -35 -34
-24 -45 -38 -50 -68 -12 -64 -16 -71 -48 -82 -39 -14 -119 -14 -262 -1 -61 5
-190 17 -286 25 -96 8 -254 27 -350 40 -192 28 -272 56 -293 102 -10 22 -8 28
15 48 15 13 46 26 70 30 114 17 146 27 182 57 45 37 66 81 66 140 0 58 22 88
64 88 17 0 131 -34 252 -75z m-18163 -100 c98 -21 204 -75 325 -168 90 -68
145 -99 345 -194 130 -62 272 -135 315 -162 42 -26 98 -57 123 -68 48 -21 102
-79 319 -338 135 -161 171 -245 135 -314 -19 -38 -92 -76 -176 -91 -126 -23
-614 -72 -724 -73 -241 -2 -372 72 -482 270 -27 47 -63 103 -81 124 -40 46
-136 95 -217 110 -272 52 -573 158 -875 309 -100 50 -123 69 -133 109 -17 68
55 130 243 210 63 26 198 88 300 136 102 48 205 96 230 107 109 47 232 59 353
33z m12322 -438 c39 -39 51 -87 35 -145 -12 -48 -20 -50 -61 -22 -25 19 -27
24 -17 45 8 19 8 31 0 50 -14 31 -48 33 -79 3 -19 -18 -26 -20 -48 -10 -51 23
-39 63 28 96 55 27 104 21 142 -17z m1235 -156 c19 -10 62 -49 95 -88 33 -38
96 -112 141 -164 92 -108 143 -176 172 -235 12 -23 42 -65 67 -95 105 -122
231 -341 241 -419 9 -71 -11 -128 -65 -181 -72 -73 -168 -88 -309 -48 -120 33
-144 16 -163 -115 -25 -181 -76 -273 -165 -295 -99 -25 -200 30 -395 215 -166
157 -190 174 -243 174 -44 0 -53 -8 -296 -268 -103 -109 -119 -122 -148 -122
-24 0 -42 9 -63 29 -28 29 -29 32 -29 128 1 129 13 177 62 242 59 77 185 202
307 301 146 119 154 135 162 345 5 150 8 165 39 244 52 131 89 168 286 280
183 105 221 114 304 72z m-14585 -76 c143 -63 247 -100 569 -201 372 -117 413
-140 534 -297 94 -122 164 -187 237 -222 93 -44 108 -89 48 -147 -56 -53 -115
-86 -243 -138 -99 -40 -141 -65 -299 -179 -101 -73 -207 -144 -234 -158 -73
-37 -145 -35 -232 6 -93 43 -197 114 -275 186 -153 144 -248 204 -401 256
-120 41 -280 50 -431 25 -181 -30 -222 -17 -221 66 1 61 38 179 81 262 70 134
512 549 631 592 52 19 100 9 236 -51z m20260 -90 c144 -47 266 -111 283 -148
12 -24 11 -33 -6 -65 -16 -32 -42 -49 -198 -132 -172 -91 -183 -99 -285 -200
-127 -126 -170 -201 -172 -299 -1 -47 3 -66 19 -88 40 -54 119 -95 264 -137
67 -19 130 -72 130 -109 0 -37 -57 -83 -120 -96 -95 -20 -252 -13 -405 18 -77
16 -165 40 -195 53 -115 52 -257 186 -301 283 -23 50 -25 159 -4 239 27 105
94 250 148 321 115 153 364 333 547 396 52 18 181 2 295 -36z m-9431 -23 c141
-73 338 -306 422 -500 33 -75 117 -327 130 -387 5 -27 8 -23 33 50 36 106 62
156 128 242 143 188 364 292 503 237 46 -19 60 -38 60 -86 0 -40 -14 -64 -121
-204 -65 -86 -104 -152 -180 -309 -117 -240 -148 -317 -195 -483 -56 -200 -83
-228 -208 -220 -126 8 -226 72 -271 173 -12 28 -41 109 -65 180 -23 72 -78
220 -122 330 -44 110 -123 310 -175 445 -52 135 -115 295 -140 357 -57 143
-56 169 7 201 57 29 99 24 194 -26z m10427 -107 c280 -15 338 -28 399 -85 57
-53 39 -81 -144 -227 -175 -139 -342 -312 -389 -400 -56 -106 -47 -167 27
-202 23 -10 93 -27 156 -36 135 -20 176 -35 191 -69 17 -37 -10 -72 -84 -106
-127 -59 -362 -81 -487 -45 -30 8 -86 22 -124 30 -91 21 -135 45 -185 101 -52
59 -116 185 -132 261 -15 75 -1 195 33 279 36 89 189 314 272 399 72 74 138
115 186 115 14 0 140 -7 281 -15z m-17243 -299 c37 -19 68 -55 87 -98 39 -94
2 -214 -106 -340 -24 -28 -38 -62 -60 -147 -38 -149 -72 -217 -170 -336 -145
-177 -201 -225 -263 -225 -18 0 -42 -19 -88 -71 -40 -44 -100 -95 -162 -136
-55 -37 -134 -99 -175 -138 -115 -110 -251 -221 -303 -250 -25 -14 -83 -34
-129 -46 -109 -27 -150 -49 -196 -106 -52 -66 -52 -65 -198 -139 -71 -36 -167
-93 -213 -126 -52 -37 -106 -67 -142 -78 -75 -23 -112 -49 -144 -104 -30 -51
-62 -76 -161 -127 -38 -20 -119 -64 -180 -97 -60 -34 -123 -64 -140 -68 -53
-11 -105 -47 -141 -97 -50 -69 -94 -86 -219 -87 -158 -1 -230 -23 -380 -118
-33 -21 -74 -36 -115 -43 -36 -6 -75 -13 -88 -15 -12 -3 -40 -20 -61 -39 -47
-43 -79 -55 -143 -55 -40 0 -62 -7 -109 -36 -79 -49 -129 -54 -198 -19 -31 15
-90 32 -144 41 -87 14 -168 42 -180 61 -9 14 14 147 27 155 6 4 33 -15 61 -41
44 -42 64 -52 170 -86 144 -46 194 -49 233 -13 49 46 79 59 152 65 61 5 81 12
132 45 38 25 81 43 117 49 31 6 95 28 142 50 73 33 110 43 255 64 93 15 183
31 201 36 20 7 57 38 98 84 48 54 78 78 108 88 23 8 64 22 90 30 59 20 268
150 360 224 63 51 181 128 324 212 173 101 213 123 275 147 53 20 76 36 108
74 51 61 110 98 249 159 153 68 230 122 396 280 78 75 169 151 201 170 33 19
69 41 82 48 13 8 32 35 43 60 25 58 38 68 124 94 58 18 78 30 118 73 117 123
188 237 236 377 35 106 60 154 106 209 88 105 106 195 60 286 -28 55 -30 67
-15 95 13 23 31 24 68 5z m-753 -213 c-13 -53 -68 -150 -134 -238 -103 -135
-121 -166 -121 -202 l0 -33 49 24 c102 52 286 220 379 349 40 53 54 62 92 58
23 -3 50 -40 43 -59 -12 -32 -117 -154 -190 -220 -158 -141 -317 -242 -383
-242 -50 0 -100 49 -100 97 0 39 71 164 162 283 52 69 103 140 114 158 11 19
31 36 49 41 46 14 48 13 40 -16z m-3660 -233 c189 -28 300 -78 373 -170 113
-142 204 -211 340 -255 64 -21 82 -37 82 -77 0 -44 -69 -167 -169 -301 -97
-130 -167 -244 -202 -327 -36 -88 -90 -162 -143 -197 -64 -44 -112 -43 -286 3
-225 59 -351 118 -475 223 -143 122 -175 131 -285 82 -71 -33 -81 -31 -124 19
-60 72 -67 180 -25 393 33 164 161 457 219 499 14 10 88 34 166 53 244 61 384
75 529 55z m2499 -271 c38 -18 51 -59 35 -110 -18 -55 -57 -84 -110 -82 -108
5 -166 107 -100 174 26 26 36 29 90 29 33 0 71 -5 85 -11z m13187 -62 c23 -18
78 -102 105 -161 57 -125 88 -401 65 -586 -17 -133 -59 -343 -83 -415 -59
-172 -178 -363 -316 -507 -177 -184 -333 -282 -449 -283 -96 0 -118 30 -157
215 -23 107 -43 135 -124 172 -155 70 -179 84 -230 132 -123 116 -112 183 45
278 101 61 180 135 207 196 18 39 18 44 4 59 -14 13 -27 14 -99 4 -45 -6 -121
-11 -168 -11 -47 0 -126 -7 -176 -16 -133 -24 -218 -24 -244 0 -36 32 -27 72
35 164 73 107 114 141 226 185 302 119 348 121 553 27 48 -22 98 -40 112 -40
83 0 202 164 247 340 39 151 46 168 82 199 39 35 72 39 129 15 46 -19 86 -12
135 21 39 26 77 31 101 12z m-3629 -568 c29 -38 38 -89 43 -239 3 -74 7 -157
11 -185 8 -69 52 -178 103 -255 60 -89 217 -242 330 -320 246 -171 313 -257
296 -382 -10 -69 -57 -134 -125 -171 -30 -16 -57 -31 -58 -33 -2 -1 3 -34 12
-73 19 -84 20 -140 2 -163 -24 -32 -84 -49 -170 -50 -114 0 -164 14 -296 84
-286 150 -449 317 -595 608 -91 182 -107 277 -79 466 18 118 23 301 13 504 -4
85 -1 100 20 143 13 28 35 54 52 62 26 14 33 14 66 0 20 -9 51 -26 67 -39 55
-42 65 -41 151 19 90 63 124 68 157 24z m-10111 -4 c35 -19 102 -107 150 -198
33 -65 33 -67 19 -109 -19 -53 -49 -71 -111 -64 -89 9 -234 152 -246 243 -13
101 96 175 188 128z m-2457 -230 c31 -19 90 -62 129 -96 88 -76 165 -113 276
-134 95 -18 143 -40 183 -82 75 -79 50 -208 -102 -513 -93 -187 -102 -214
-101 -340 0 -167 -11 -220 -76 -348 -96 -190 -159 -233 -273 -181 -116 53
-205 155 -246 283 -45 142 -49 203 -36 494 15 316 9 383 -49 554 -45 135 -66
223 -61 256 8 48 174 142 253 142 34 0 59 -9 103 -35z m1491 -79 c41 -17 55
-42 55 -95 0 -99 -120 -139 -192 -64 -37 39 -42 71 -20 113 29 53 94 72 157
46z m12718 -317 c20 -5 77 -36 125 -68 78 -53 117 -89 229 -214 40 -44 85 -55
151 -36 26 8 79 14 117 14 65 0 76 -3 140 -42 141 -85 249 -168 271 -207 21
-37 35 -111 50 -257 11 -119 -39 -183 -236 -300 -136 -80 -265 -140 -416 -192
-128 -45 -197 -61 -378 -92 -131 -22 -179 -25 -386 -25 -262 0 -301 6 -384 61
-59 39 -97 95 -103 152 -5 44 3 65 82 206 14 24 25 56 25 70 0 14 -23 73 -51
132 -66 141 -68 221 -6 287 49 53 57 54 327 42 182 -7 276 -7 343 1 50 6 94
12 95 14 14 13 -32 90 -101 171 -122 142 -130 153 -123 193 13 82 114 122 229
90z m-13128 -230 c46 -16 97 -23 220 -29 208 -10 265 -31 265 -100 0 -37 -79
-110 -158 -147 -215 -100 -550 -205 -570 -179 -19 23 -20 65 -2 81 17 15 117
41 249 65 77 14 256 90 298 128 18 15 34 37 38 48 5 21 3 22 -147 26 -164 6
-231 20 -284 63 -29 23 -29 23 -10 44 24 26 28 26 101 0z m14784 -3025 c245
-55 571 -167 651 -224 48 -34 67 -91 84 -255 15 -136 40 -273 136 -730 27
-126 31 -166 28 -250 -4 -90 -8 -110 -45 -195 -67 -156 -75 -188 -82 -308 -5
-104 -8 -115 -30 -133 -31 -25 -45 -24 -118 10 -73 35 -157 91 -229 153 -38
33 -113 73 -279 149 -340 155 -361 179 -359 419 1 109 6 155 27 242 41 165 51
273 37 389 -20 177 -79 309 -211 477 -45 57 -84 115 -89 130 -18 64 47 109
197 136 113 20 152 19 282 -10z m-740 -48 c33 -18 223 -214 284 -294 97 -128
158 -251 196 -396 29 -109 27 -186 -5 -261 -41 -96 -61 -165 -69 -235 -6 -58
-3 -88 21 -221 5 -29 2 -41 -18 -63 -22 -26 -31 -29 -113 -33 -54 -3 -140 1
-215 10 -212 27 -281 30 -412 17 -120 -12 -130 -11 -197 9 -94 29 -133 67
-160 158 -93 315 -108 470 -65 678 29 142 19 171 -82 246 -59 43 -63 57 -38
117 19 45 65 95 119 127 108 63 302 125 450 144 117 14 272 13 304 -3z m1736
-250 c33 -18 124 -80 202 -137 77 -57 211 -153 298 -214 86 -60 179 -134 206
-163 55 -60 111 -168 134 -257 19 -76 19 -231 0 -359 -14 -91 -13 -121 5 -360
12 -161 18 -322 16 -421 l-3 -160 -87 -240 c-102 -280 -137 -344 -210 -382
-74 -38 -147 21 -329 265 -341 459 -391 551 -390 717 0 97 23 165 88 270 92
149 100 235 36 423 -22 64 -50 157 -61 206 -46 200 -89 540 -90 704 0 79 2 85
29 113 39 39 78 38 156 -5z m-2694 -197 c159 -83 180 -143 132 -384 -20 -106
-13 -194 27 -323 26 -81 31 -112 25 -148 -8 -53 -48 -103 -101 -129 -63 -30
-213 -54 -396 -65 -234 -13 -292 -27 -383 -95 -44 -33 -158 -75 -233 -87 -103
-16 -260 -7 -302 18 -57 33 -72 73 -67 185 5 133 38 201 150 316 103 106 164
147 407 268 276 138 316 167 466 337 98 111 143 148 177 148 11 0 54 -18 98
-41z m3736 -635 c72 -50 148 -134 233 -258 38 -57 113 -149 165 -204 103 -110
154 -197 196 -332 20 -62 23 -96 23 -200 -1 -106 -6 -149 -37 -285 -20 -88
-50 -241 -68 -340 -28 -162 -97 -467 -134 -592 -29 -96 -62 -133 -240 -262
-92 -67 -178 -124 -191 -127 -31 -8 -52 9 -117 91 -135 173 -183 267 -218 430
-29 130 -20 164 93 352 90 150 125 247 160 443 17 99 15 459 -6 924 -15 331
-15 361 0 384 14 21 21 23 52 18 20 -3 60 -22 89 -42z m-3607 -766 c5 -13 14
-48 20 -78 6 -30 29 -89 51 -130 77 -145 102 -205 107 -256 4 -44 1 -55 -18
-74 -29 -29 -87 -24 -162 14 -106 52 -498 398 -498 438 0 20 33 48 56 48 31 0
74 -38 151 -134 73 -91 125 -137 232 -208 70 -46 131 -63 145 -40 2 4 -21 55
-53 114 -32 58 -65 124 -74 147 -19 47 -33 142 -24 165 10 25 56 20 67 -6z
m637 -56 c30 -24 63 -83 63 -113 0 -30 -42 -74 -88 -90 -49 -17 -102 13 -121
68 -28 81 16 152 94 152 17 0 40 -7 52 -17z m729 -668 c18 -9 43 -31 54 -49
32 -52 26 -102 -26 -203 -65 -127 -88 -153 -147 -159 -57 -7 -78 8 -103 72
-14 38 -14 53 -4 116 32 186 120 273 226 223z m832 -150 c27 -19 72 -104 72
-137 0 -57 -90 -100 -154 -73 -70 29 -93 144 -41 200 28 31 87 36 123 10z
m-15397 -112 c34 -30 62 -113 49 -147 -13 -36 -71 -54 -255 -80 -99 -14 -200
-25 -225 -24 -25 0 -67 -8 -95 -19 -37 -15 -55 -17 -72 -9 -42 19 -94 193 -64
212 6 3 29 7 53 9 157 14 524 69 536 80 13 14 44 4 73 -22z"/>
<path d="M14160 15661 c0 -41 21 -58 88 -71 102 -21 123 -26 409 -109 154 -44
291 -81 303 -81 12 0 110 -32 217 -71 108 -38 212 -72 232 -73 46 -4 123 -24
571 -148 201 -56 381 -101 400 -102 31 -1 35 2 38 26 3 25 -1 28 -65 47 -37
11 -106 29 -153 41 -47 12 -187 52 -313 91 -125 38 -323 96 -440 129 -116 33
-246 73 -287 89 -41 16 -95 31 -120 34 -25 2 -61 11 -80 20 -19 9 -82 27 -140
41 -58 13 -199 50 -315 80 -115 31 -227 56 -248 56 -24 0 -40 5 -43 15 -4 8
-17 15 -30 15 -20 0 -24 -5 -24 -29z"/>
<path d="M18357 15479 c4 -38 0 -54 -27 -102 -36 -65 -62 -87 -102 -87 -25 0
-28 -3 -28 -36 0 -46 -14 -70 -50 -89 -26 -14 -28 -17 -19 -47 12 -42 -4 -91
-38 -118 -23 -18 -25 -24 -19 -64 5 -32 3 -54 -9 -76 -9 -17 -25 -59 -35 -94
-27 -87 -43 -99 -117 -91 -32 4 -75 16 -95 26 -21 11 -39 19 -42 19 -6 0 -34
-89 -37 -115 -4 -51 1 -66 29 -76 98 -34 152 -84 152 -140 -1 -110 -6 -196
-13 -206 -5 -7 -17 -13 -28 -13 -25 0 -24 -8 6 -32 27 -21 33 -56 13 -76 -7
-7 -16 -38 -20 -69 -10 -71 -10 -80 -2 -121 4 -19 2 -38 -5 -46 -8 -10 -8 -21
-1 -41 6 -15 9 -46 8 -69 -3 -39 1 -46 50 -93 32 -31 54 -62 58 -82 6 -28 10
-31 43 -31 31 0 43 -8 96 -65 34 -36 68 -65 77 -65 8 0 27 9 41 20 14 11 31
20 37 20 22 0 139 -90 157 -120 10 -17 22 -29 28 -27 5 2 37 12 69 22 l59 19
23 -27 23 -26 6 32 c16 73 64 125 104 112 11 -3 41 -36 67 -72 44 -62 46 -68
36 -98 -17 -44 -15 -48 12 -41 38 9 73 -9 80 -41 l6 -28 83 3 c72 3 85 1 110
-18 23 -18 42 -22 110 -24 69 -1 93 -7 151 -34 37 -18 78 -32 90 -32 13 0 48
-18 78 -40 45 -32 62 -39 86 -34 23 5 33 1 49 -20 13 -16 31 -26 47 -26 37 0
183 -58 198 -78 22 -29 202 -72 222 -52 5 5 18 10 28 10 16 0 18 9 18 70 0 59
3 71 20 80 14 8 26 8 40 0 23 -12 24 -19 20 -112 -2 -59 0 -69 16 -74 11 -3
34 -12 52 -20 25 -11 37 -11 51 -2 26 16 155 -4 182 -28 18 -16 20 -16 40 10
26 33 62 34 106 0 18 -14 37 -23 41 -20 5 3 17 23 27 46 25 55 59 64 92 24 22
-26 25 -27 34 -11 19 33 53 57 81 57 23 0 28 4 28 25 0 13 -5 35 -11 49 -10
20 -8 33 9 69 11 24 27 49 36 56 9 8 16 25 17 40 0 24 30 83 73 144 16 23 17
31 6 56 -13 32 -6 54 29 85 18 16 20 26 15 75 -6 56 -6 57 30 89 27 23 36 39
36 63 0 17 9 42 20 56 11 14 20 39 20 55 0 20 10 40 30 60 26 26 30 35 24 65
-8 43 9 78 46 93 22 9 34 26 51 73 19 49 20 62 9 65 -8 3 -32 22 -54 42 -28
27 -37 42 -33 55 5 12 14 15 31 11 31 -8 76 27 76 60 0 13 13 38 30 56 17 17
30 32 30 34 0 2 -9 18 -20 37 -11 18 -24 61 -28 95 -8 55 -13 66 -51 101 -23
22 -54 42 -67 45 -14 4 -34 22 -45 41 -21 36 -82 76 -149 100 -22 8 -40 10
-40 5 0 -5 -11 -13 -26 -16 -18 -5 -32 0 -49 16 l-24 23 1 -46 c1 -53 -6 -67
-33 -67 -19 0 -23 6 -49 77 -9 24 -26 39 -74 63 -105 52 -144 105 -122 168 5
16 4 22 -8 22 -21 0 -36 31 -36 74 0 27 9 46 36 76 54 60 31 72 -27 14 -27
-27 -49 -53 -49 -59 -1 -47 -178 -199 -220 -188 -35 9 -44 30 -26 57 19 31 8
41 -44 38 -24 -2 -45 4 -62 18 -15 11 -31 20 -36 20 -6 0 -25 18 -42 40 -17
22 -38 40 -46 40 -8 0 -37 -11 -64 -25 -27 -14 -53 -25 -58 -25 -5 0 -30 18
-55 40 -40 36 -48 39 -72 30 -40 -15 -70 -12 -89 9 -9 10 -28 19 -42 19 -14 0
-37 5 -50 13 -19 10 -27 10 -36 1 -19 -19 -61 -14 -100 13 -28 19 -42 23 -60
16 -14 -5 -36 -4 -58 4 -19 7 -44 9 -55 5 -26 -9 -46 -2 -66 23 -11 13 -32 21
-65 24 -44 4 -50 2 -59 -19 -7 -17 -18 -23 -40 -23 -44 0 -69 55 -73 162 -4
78 -5 82 -23 72 -30 -16 -55 5 -74 61 -9 27 -20 50 -25 50 -10 0 -50 -80 -50
-100 0 -12 -34 -74 -97 -178 -10 -17 -22 -22 -41 -20 -37 4 -39 31 -7 79 31
44 26 58 -26 79 -25 11 -32 10 -49 -5 -22 -20 -68 -22 -99 -6 -13 7 -22 8 -26
1 -10 -15 -56 -11 -100 9 -23 10 -63 21 -90 25 -65 10 -92 28 -115 79 l-19 42
6 -46z m184 -326 c37 -20 57 -36 63 -56 16 -45 -3 -53 -67 -29 -54 21 -55 21
-60 2 -12 -46 -77 -24 -77 26 0 28 46 84 69 84 10 0 42 -12 72 -27z m1173
-213 c27 -32 25 -60 -4 -60 -9 0 -34 -16 -54 -35 -45 -42 -81 -46 -98 -10 -10
21 -8 29 9 48 11 12 24 31 27 43 7 23 39 42 73 43 12 1 32 -12 47 -29z m-667
-217 c78 -50 98 -125 73 -277 -15 -92 -72 -138 -99 -79 -9 18 -10 56 -5 128 5
83 4 107 -10 132 -41 80 -122 37 -185 -97 -17 -36 -31 -72 -31 -80 0 -9 -5
-21 -12 -28 -37 -37 -52 82 -21 177 18 57 63 113 108 136 50 25 134 20 182
-12z m1528 -483 c51 -50 56 -70 53 -235 l-3 -150 -35 2 c-56 2 -63 21 -56 153
6 119 0 151 -35 173 -34 21 -67 -1 -108 -71 -22 -37 -50 -93 -62 -124 -24 -65
-41 -72 -59 -28 -29 71 60 262 141 303 53 28 122 18 164 -23z m-1938 -26 c28
-18 37 -51 24 -87 -13 -33 -24 -34 -51 -5 l-20 22 -24 -23 c-20 -19 -32 -22
-58 -17 -69 14 -73 13 -70 -15 4 -34 -20 -44 -59 -24 -36 19 -39 59 -8 99 29
37 63 49 107 37 27 -8 38 -7 46 3 30 36 66 40 113 10z m907 -200 c20 -8 50
-57 70 -117 15 -46 15 -51 -4 -94 -11 -25 -20 -57 -20 -70 0 -30 -52 -144 -87
-191 -26 -34 -70 -62 -101 -62 -42 0 -101 103 -102 176 0 54 44 207 75 260 43
73 119 117 169 98z m1049 -326 c12 -7 38 -13 57 -14 41 -1 118 -29 143 -51 17
-16 22 -48 11 -77 -11 -29 -87 -15 -129 24 -11 10 -38 20 -60 23 -58 8 -98 18
-112 30 -16 12 -17 49 -1 65 16 16 63 15 91 0z m25 -514 c29 -20 29 -59 -2
-79 -13 -9 -52 -18 -87 -21 -73 -7 -93 5 -87 53 3 24 7 28 33 26 16 -1 36 4
45 11 8 8 26 16 40 19 14 2 27 5 30 6 3 0 16 -6 28 -15z"/>
<path d="M19451 13865 c-18 -30 -40 -74 -48 -97 -18 -54 -27 -168 -14 -187 16
-24 55 11 95 85 31 60 36 77 37 149 3 124 -17 138 -70 50z"/>
<path d="M11587 15533 c-4 -3 -7 -27 -7 -53 0 -57 -19 -85 -90 -130 -28 -18
-58 -46 -66 -61 -14 -28 -14 -29 10 -29 13 0 53 14 88 31 58 28 69 30 135 24
83 -8 93 1 93 78 0 57 -25 89 -94 122 -58 28 -60 28 -69 18z"/>
<path d="M5472 15235 c-12 -9 -35 -36 -52 -61 -59 -85 -110 -96 -208 -46 -85
43 -121 48 -155 22 -43 -34 -49 -78 -46 -359 l3 -256 -37 -123 c-71 -235 -135
-327 -367 -524 l-55 -46 42 -36 c52 -45 83 -108 83 -169 0 -26 4 -47 9 -47 6
0 79 46 163 102 153 102 212 136 344 195 95 44 153 97 198 182 20 39 66 118
101 176 108 179 133 270 142 520 8 254 -17 370 -98 453 -36 37 -37 37 -67 17z"/>
<path d="M17040 14843 c0 -25 6 -33 33 -43 17 -7 56 -24 85 -37 30 -13 79 -28
109 -33 56 -9 251 -58 264 -66 9 -5 19 22 19 52 0 20 -8 26 -52 38 -29 8 -100
29 -158 46 -183 54 -202 60 -252 66 l-48 7 0 -30z"/>
<path d="M7595 14800 c-49 -10 -109 -26 -132 -35 -54 -21 -122 -96 -146 -161
-28 -75 -33 -191 -12 -269 17 -63 170 -354 202 -385 11 -10 13 -11 8 -1 -15
27 -55 187 -55 222 0 61 39 120 101 152 52 28 58 29 159 24 133 -6 207 -27
461 -127 112 -44 211 -80 220 -80 28 0 42 27 36 70 -7 57 -95 253 -168 376
-87 145 -124 176 -242 205 -132 31 -313 35 -432 9z"/>
<path d="M13286 14708 c-9 -24 -32 -118 -51 -210 -24 -114 -48 -198 -75 -261
-60 -141 -83 -250 -84 -392 -1 -108 1 -124 22 -157 45 -72 179 -104 327 -79
141 25 230 90 362 265 127 168 152 247 127 396 -24 135 -80 381 -97 423 -15
34 -19 37 -37 27 -33 -18 -46 -56 -85 -250 -42 -211 -59 -258 -118 -319 -81
-84 -140 -92 -203 -27 -60 63 -73 125 -49 232 21 93 25 337 6 372 -17 32 -27
27 -45 -20z"/>
<path d="M12540 13722 c-83 -25 -91 -26 -337 -23 l-252 2 6 -73 c3 -40 8 -76
12 -79 3 -4 74 -14 156 -24 83 -9 270 -32 418 -51 290 -37 313 -39 322 -25 3
5 -33 42 -79 81 -104 87 -120 111 -119 173 1 57 -2 57 -127 19z"/>
<path d="M4175 13486 c-27 -8 -84 -29 -126 -49 -90 -43 -200 -66 -478 -102
-212 -27 -326 -33 -399 -21 -57 10 -49 -9 23 -52 105 -63 178 -85 305 -89 123
-5 148 1 320 63 l76 28 39 -20 c53 -25 81 -76 71 -129 -6 -33 -20 -52 -79
-105 -192 -174 -254 -254 -327 -420 -67 -152 -90 -246 -90 -365 0 -98 10 -155
27 -155 5 0 109 160 232 357 124 196 252 393 285 437 82 110 250 367 277 422
25 52 22 111 -9 173 -15 32 -22 36 -57 38 -22 1 -62 -4 -90 -11z"/>
<path d="M9914 13168 c-9 -13 48 -66 146 -136 117 -83 168 -132 256 -244 120
-152 128 -170 121 -283 -3 -49 -11 -107 -17 -128 -15 -50 -65 -106 -116 -129
-23 -10 -153 -42 -288 -72 -136 -30 -250 -56 -252 -59 -9 -9 89 -48 169 -67
98 -23 197 -27 417 -17 199 10 256 20 337 58 80 38 175 126 198 182 10 24 20
81 23 133 8 152 -30 244 -180 442 -149 197 -269 260 -588 312 -142 23 -215 25
-226 8z"/>
<path d="M11125 13123 c-16 -2 -47 -8 -68 -14 l-38 -10 18 -30 c10 -17 62 -71
115 -120 111 -102 262 -285 309 -373 61 -113 73 -211 40 -328 -19 -72 -70
-164 -111 -202 -52 -49 -196 -137 -292 -177 -54 -22 -98 -45 -98 -50 0 -16 51
-22 133 -14 171 14 261 42 470 147 124 62 171 100 227 187 56 88 74 153 74
276 1 100 -1 115 -27 169 -15 33 -43 78 -61 100 -41 51 -67 101 -95 188 -28
83 -68 139 -123 172 -98 57 -332 96 -473 79z"/>
<path d="M23239 12877 c-44 -20 -91 -66 -87 -84 2 -10 19 -25 39 -35 50 -23
58 -36 74 -122 16 -83 42 -136 56 -114 5 7 9 40 9 73 0 75 14 126 44 162 12
15 25 35 29 44 8 23 -20 59 -59 75 -40 17 -70 17 -105 1z"/>
<path d="M21615 12144 c-59 -60 -66 -83 -36 -113 16 -16 29 -18 78 -14 65 6
68 4 151 -95 24 -29 50 -52 59 -52 9 0 -4 21 -36 56 -70 77 -85 107 -86 181
-2 111 -45 123 -130 37z"/>
<path d="M19863 11563 c-14 -51 -7 -284 11 -371 22 -104 12 -160 -40 -221 -61
-71 -132 -62 -215 26 -57 59 -74 104 -114 302 -42 210 -45 221 -76 250 -22 20
-23 20 -36 2 -25 -37 -113 -448 -113 -531 0 -81 34 -166 108 -269 176 -247
305 -322 525 -309 182 12 242 92 219 296 -15 125 -42 227 -92 343 -26 63 -53
154 -80 278 -37 173 -57 231 -80 231 -5 0 -13 -12 -17 -27z"/>
<path d="M6567 5937 c-14 -29 -39 -86 -55 -127 -17 -41 -53 -122 -80 -180 -54
-113 -192 -507 -192 -546 0 -17 6 -24 18 -24 31 0 101 58 119 98 14 33 350
746 360 764 2 4 -20 19 -50 32 -95 42 -91 42 -120 -17z"/>
<path d="M6842 5838 c-48 -84 -330 -674 -341 -713 -8 -32 -7 -35 11 -35 29 0
101 55 136 103 76 108 352 612 352 645 0 4 -24 16 -52 26 -29 9 -58 20 -64 22
-7 3 -26 -19 -42 -48z"/>
<path d="M20440 10405 c0 -62 -37 -100 -169 -175 -68 -38 -89 -55 -79 -61 8
-5 116 -15 239 -24 123 -9 304 -22 401 -30 97 -8 196 -15 220 -15 l44 0 18 71
c10 39 16 72 14 73 -6 6 -174 36 -283 51 -131 18 -181 33 -297 91 -48 24 -92
44 -98 44 -5 0 -10 -11 -10 -25z"/>
<path d="M15925 9678 c-11 -6 -39 -28 -63 -49 -26 -23 -79 -51 -138 -74 -52
-20 -106 -47 -119 -59 -13 -11 -40 -53 -59 -92 l-36 -70 0 -137 c0 -152 -11
-219 -47 -291 -31 -60 -113 -141 -210 -207 -82 -56 -258 -219 -277 -258 -17
-33 -30 -158 -17 -165 5 -3 28 20 52 52 62 84 248 271 291 293 93 48 171 13
345 -153 135 -130 287 -238 333 -238 60 0 86 56 100 210 13 157 42 206 133
231 34 9 56 7 141 -15 115 -29 162 -32 209 -12 56 24 70 48 65 114 -6 80 -46
156 -133 251 -107 116 -158 180 -199 246 -21 33 -80 101 -132 151 -72 70 -100
104 -120 150 -42 96 -44 100 -72 117 -21 12 -32 13 -47 5z"/>
<path d="M21415 9526 c-117 -37 -322 -172 -435 -285 -152 -153 -224 -367 -173
-517 37 -110 217 -241 390 -284 105 -27 314 -50 355 -40 72 17 74 21 27 46
-24 13 -51 23 -59 24 -22 0 -134 55 -194 94 -77 52 -101 100 -100 201 1 92 20
150 79 241 54 83 196 221 285 277 214 135 250 160 246 164 -3 3 -35 11 -71 19
-36 8 -98 27 -136 44 -78 33 -145 38 -214 16z"/>
<path d="M12140 9509 c0 -6 70 -178 155 -383 85 -205 171 -424 191 -486 38
-119 148 -400 183 -469 28 -53 97 -95 160 -95 l46 -1 33 68 c20 40 38 96 43
135 17 122 40 176 203 485 91 172 135 244 180 295 46 52 56 68 42 70 -30 6
-181 -77 -244 -134 -105 -95 -138 -158 -206 -396 -12 -42 -25 -63 -47 -79 -58
-41 -135 -24 -175 37 -11 16 -22 69 -30 150 -20 194 -50 290 -135 438 -98 172
-186 271 -300 339 -63 37 -99 47 -99 26z"/>
<path d="M22460 9390 c-100 -14 -143 -35 -200 -97 -114 -125 -182 -253 -225
-427 -31 -122 -30 -178 4 -244 28 -54 102 -124 169 -160 93 -48 145 -56 337
-48 232 8 258 17 128 40 -151 26 -211 72 -226 175 -8 49 26 148 74 216 69 99
118 150 291 306 91 83 169 157 172 165 24 63 -22 77 -264 80 -107 1 -224 -1
-260 -6z"/>
<path d="M16635 8251 c-26 -24 -86 -33 -136 -21 -33 8 -54 9 -60 3 -6 -6 -28
-63 -50 -129 -64 -188 -144 -319 -235 -383 -76 -53 -109 -49 -298 35 -68 30
-134 54 -147 54 -38 0 -393 -117 -420 -139 -26 -20 -67 -87 -59 -95 3 -2 29 0
58 5 97 15 385 32 458 26 86 -6 127 -25 144 -67 17 -42 0 -117 -41 -181 -30
-48 -142 -159 -211 -212 -41 -32 -55 -61 -39 -81 10 -12 128 -85 242 -149 86
-49 144 -137 172 -261 9 -38 20 -73 25 -78 25 -25 162 37 277 127 194 152 291
291 368 530 65 202 70 224 77 395 7 143 5 189 -15 347 -20 153 -28 191 -51
233 -27 49 -41 59 -59 41z"/>
<path d="M12709 7698 c0 -2 -4 -97 -9 -213 -5 -148 -14 -244 -30 -325 -28
-146 -24 -203 23 -301 20 -41 56 -121 81 -178 60 -137 98 -199 176 -283 163
-177 401 -326 539 -336 115 -8 129 14 91 137 -17 53 -18 70 -9 98 11 34 60 74
132 108 71 33 93 85 59 137 -32 48 -188 164 -324 242 -72 40 -163 130 -245
240 -79 106 -111 162 -136 241 -21 64 -43 196 -52 308 -7 84 -9 88 -29 83 -11
-4 -48 -9 -81 -12 -54 -5 -66 -3 -119 25 -56 30 -65 34 -67 29z"/>
<path d="M2894 7754 c3 -9 1 -34 -5 -56 -12 -48 -7 -55 91 -129 73 -55 110
-63 110 -25 0 57 -69 171 -124 205 -41 26 -81 28 -72 5z"/>
<path d="M14613 7113 c-7 -2 -13 -8 -13 -12 0 -4 48 -64 106 -132 121 -141
146 -183 147 -247 0 -63 -35 -94 -135 -117 -85 -20 -353 -23 -478 -5 -162 22
-201 24 -211 9 -16 -25 -10 -51 46 -180 60 -139 65 -176 35 -229 -73 -128 -73
-129 -54 -172 23 -51 84 -105 128 -114 20 -3 181 -4 358 -1 290 4 331 7 403
26 279 76 411 132 612 258 113 72 143 102 142 142 0 14 -15 82 -32 151 l-32
125 -74 52 c-93 67 -187 98 -269 89 -186 -21 -208 -20 -256 8 -30 17 -73 63
-130 134 -137 175 -228 242 -293 215z"/>
<path d="M16156 1252 c-4 -6 -25 -17 -47 -24 -47 -14 -52 -24 -69 -132 -14
-90 -8 -126 19 -126 41 0 130 154 131 226 0 35 -23 73 -34 56z"/>
<path d="M1445 994 c-44 -8 -123 -19 -175 -24 -130 -14 -213 -30 -227 -43 -2
-3 3 -17 12 -31 16 -25 22 -26 105 -26 52 0 116 7 161 19 41 10 116 24 167 31
90 13 92 13 92 39 0 31 -17 52 -39 50 -9 -1 -52 -8 -96 -15z"/>
<path d="M1435 15923 c-30 -142 -63 -258 -90 -318 -16 -38 -32 -101 -41 -170
-17 -120 -38 -185 -76 -236 -29 -39 -40 -74 -32 -105 4 -17 22 -26 82 -43 53
-16 106 -41 169 -83 l93 -61 92 8 c50 4 101 10 112 15 12 4 53 34 91 65 39 31
108 75 154 98 82 41 88 42 180 42 85 -1 110 -6 221 -42 151 -50 328 -87 387
-80 28 3 64 18 101 43 l57 39 -65 2 c-154 6 -372 43 -432 74 -23 12 -48 37
-65 66 -25 43 -27 55 -26 140 1 52 10 131 20 176 12 56 18 126 18 224 0 128
-2 144 -21 170 -42 56 -87 44 -287 -71 -99 -58 -190 -33 -242 67 l-30 57 -177
0 -177 0 -16 -77z"/>
<path d="M2862 15978 c17 -28 297 -241 346 -264 25 -11 48 -15 80 -10 25 3 47
8 49 10 2 1 -15 23 -38 47 -22 24 -77 88 -121 142 l-81 97 -125 0 -124 0 14
-22z"/>
<path d="M4110 15975 c0 -14 -13 -66 -30 -117 -53 -167 -62 -220 -49 -293 8
-47 17 -70 32 -80 28 -20 28 -19 72 155 20 80 45 164 56 187 28 58 72 93 116
93 95 0 279 -219 426 -508 31 -60 64 -113 73 -116 28 -11 60 20 113 106 109
182 116 188 237 199 99 9 115 19 138 87 28 79 22 101 -51 211 l-67 101 -533 0
-533 0 0 -25z"/>
<path d="M16500 15975 c0 -13 7 -45 16 -71 8 -25 13 -52 10 -59 -2 -7 20 -184
50 -392 30 -208 77 -540 104 -738 27 -198 58 -412 69 -475 11 -63 34 -225 52
-360 18 -135 38 -267 46 -295 8 -27 14 -74 13 -103 -2 -66 23 -228 61 -395 22
-99 28 -153 28 -241 0 -150 11 -176 74 -176 38 0 97 20 97 33 0 7 -7 26 -16
42 -9 17 -16 44 -15 61 2 47 -38 320 -54 369 -8 23 -14 53 -13 66 3 53 -26
246 -43 286 -11 27 -16 54 -13 73 4 16 0 60 -7 97 -7 37 -12 75 -11 85 3 16
-13 133 -92 683 -25 171 -59 411 -76 535 -31 224 -112 765 -130 870 -5 30 -12
72 -15 93 l-6 37 -64 0 c-62 0 -65 -1 -65 -25z"/>
<path d="M7105 15933 c-93 -22 -132 -39 -172 -76 -86 -80 -123 -181 -123 -342
0 -111 18 -196 72 -350 33 -95 50 -128 81 -160 l39 -40 -9 70 c-11 93 -7 269
8 313 27 81 122 146 238 162 154 22 404 -54 591 -180 30 -20 83 -53 118 -73
70 -41 73 -38 48 45 -8 26 -17 80 -21 120 -13 151 -35 190 -167 291 -98 75
-326 190 -416 211 -66 15 -238 20 -287 9z"/>
<path d="M9106 15930 c-69 -11 -146 -45 -200 -89 -54 -43 -106 -56 -175 -42
-88 18 -219 14 -267 -8 -59 -27 -74 -53 -74 -131 0 -54 50 -398 90 -620 6 -30
37 -111 70 -180 32 -69 89 -213 125 -320 80 -236 135 -371 215 -531 77 -154
119 -219 187 -290 63 -66 112 -89 253 -117 52 -11 158 -43 235 -71 155 -58
277 -79 585 -101 85 -6 232 -18 325 -26 448 -38 763 -39 860 -3 58 22 163 98
182 131 19 35 16 108 -6 144 -14 23 -36 38 -76 53 -30 12 -60 21 -65 21 -22 0
-29 66 -40 367 -19 502 -78 710 -285 1000 -107 150 -176 227 -250 278 -32 22
-86 65 -119 96 -51 47 -103 78 -311 181 -354 177 -384 188 -645 234 -117 21
-185 27 -350 29 -113 2 -231 0 -264 -5z"/>
<path d="M23430 12143 c-84 -8 -243 -36 -332 -59 -91 -22 -131 -38 -263 -107
-27 -14 -71 -33 -97 -42 -52 -18 -402 -279 -531 -396 -139 -126 -316 -375
-422 -591 -87 -177 -111 -255 -106 -343 9 -195 9 -196 -31 -251 -63 -86 -113
-201 -113 -260 0 -94 17 -104 391 -220 350 -109 327 -103 469 -104 74 0 208
-12 350 -31 269 -35 677 -51 801 -30 168 29 231 66 328 194 30 40 71 88 90
106 l36 35 0 1007 0 1007 -27 11 c-141 56 -390 90 -543 74z"/>
<path d="M23962 7783 c-96 -124 -177 -274 -232 -428 -31 -89 -32 -92 -25 -220
13 -273 39 -436 97 -610 34 -101 131 -311 171 -371 l27 -39 0 853 c0 468 -2
852 -4 852 -2 0 -17 -17 -34 -37z"/>
<path d="M22790 7330 c-178 -12 -202 -17 -198 -38 2 -9 25 -32 52 -49 39 -27
58 -33 100 -33 28 0 204 -11 391 -25 187 -14 364 -25 393 -25 l53 0 -3 78 -3
77 -150 6 c-360 15 -508 17 -635 9z"/>
<path d="M22728 7084 c-42 -12 4 -64 86 -98 61 -25 489 -90 670 -102 l106 -7
0 67 c0 60 -2 67 -22 75 -28 10 -192 26 -483 46 -121 8 -247 17 -280 19 -33 3
-68 2 -77 0z"/>
<path d="M0 3654 l0 -678 28 45 c16 24 37 51 47 59 10 8 31 33 47 54 25 35 28
47 28 116 0 62 4 80 18 93 25 22 39 21 87 -8 22 -14 45 -25 51 -25 19 0 54 40
54 63 0 12 6 34 14 49 13 24 12 36 -4 99 -13 50 -16 79 -9 96 13 34 13 33 -25
91 -19 29 -37 68 -40 86 -4 19 -18 46 -31 60 -20 22 -25 37 -25 81 0 46 -3 56
-22 66 -48 24 -68 51 -68 90 0 33 -4 38 -32 48 -55 19 -78 49 -78 99 0 28 -7
53 -20 69 -19 25 -19 22 -20 -653z"/>
<path d="M4353 2623 c-12 -38 -24 -90 -28 -118 -6 -60 -79 -193 -112 -206 -36
-13 -53 -1 -53 37 0 38 -20 45 -54 19 -25 -19 -119 -10 -162 16 -17 11 -38 19
-47 19 -8 0 -36 -23 -60 -51 l-45 -52 -48 17 c-62 21 -73 20 -101 -5 -13 -13
-34 -21 -50 -21 -60 3 -69 2 -108 -4 -22 -3 -50 -15 -62 -27 -19 -16 -31 -19
-75 -14 -43 4 -58 1 -77 -14 -13 -10 -38 -19 -56 -19 -18 0 -38 -7 -45 -15
-15 -18 -61 -20 -77 -4 -8 8 -21 8 -50 -1 -49 -16 -63 -28 -56 -46 8 -21 -16
-44 -46 -44 -37 0 -83 50 -122 134 -25 53 -34 65 -41 52 -15 -27 -52 -18 -93
24 -21 21 -42 37 -47 34 -5 -4 -8 -43 -7 -88 2 -73 -5 -175 -17 -233 -2 -12
-14 -28 -26 -34 -33 -18 -51 13 -42 75 7 55 -1 66 -54 66 -25 0 -35 -5 -42
-24 -11 -29 -38 -46 -75 -46 -15 0 -34 -9 -43 -20 -14 -16 -32 -21 -92 -24
-41 -3 -88 -9 -103 -15 -48 -19 -75 -13 -117 25 -43 39 -55 36 -17 -4 43 -46
17 -199 -38 -224 -18 -8 -24 -17 -19 -27 17 -44 16 -90 -4 -118 l-20 -29 24
-39 c28 -46 30 -69 9 -109 -20 -37 -19 -45 6 -72 17 -18 21 -38 25 -114 2 -50
6 -95 9 -100 7 -11 -13 -63 -28 -72 -7 -4 -24 -8 -39 -8 -15 0 -30 -4 -33 -10
-3 -5 -30 -10 -59 -10 -29 0 -55 -2 -58 -5 -9 -9 12 -129 27 -152 14 -21 23
-23 94 -23 64 0 83 -4 105 -21 32 -25 51 -61 61 -114 3 -21 18 -52 31 -68 30
-36 30 -51 -1 -75 l-24 -19 39 -12 c42 -12 43 -16 40 -82 -1 -21 3 -40 9 -43
5 -4 13 -26 16 -51 4 -24 16 -52 26 -61 10 -9 19 -27 19 -38 0 -36 69 -156 89
-156 10 0 24 -7 31 -15 7 -8 18 -15 26 -15 25 0 62 -22 74 -45 11 -20 17 -22
37 -14 42 16 82 10 145 -22 69 -35 90 -31 121 22 13 24 22 30 40 26 12 -3 48
-10 79 -17 31 -6 73 -22 92 -35 20 -14 36 -21 36 -16 0 4 22 27 50 50 49 41
50 42 80 26 l30 -16 -6 55 c-8 66 8 114 41 122 25 6 65 -11 133 -58 36 -25 42
-34 42 -64 l0 -35 30 16 c41 21 57 19 86 -12 22 -24 26 -25 42 -11 38 34 115
60 159 53 30 -4 49 -2 67 10 39 26 125 45 196 44 36 0 81 3 100 6 21 4 59 1
91 -8 51 -13 57 -13 78 4 21 17 25 17 52 4 20 -11 35 -13 47 -6 16 8 101 11
287 10 89 0 152 19 173 53 14 24 14 30 -7 77 -24 56 -21 86 8 96 33 10 48 -5
79 -78 l31 -72 53 3 c33 2 61 10 73 21 24 22 98 41 155 41 33 0 42 4 49 23 15
40 37 50 91 44 55 -7 56 -5 62 72 4 47 27 60 71 39 l35 -17 6 39 c4 28 15 46
36 62 37 27 38 50 4 73 -24 16 -25 20 -20 83 2 37 5 74 4 82 -1 85 1 160 7
180 5 18 1 32 -14 49 -24 27 -26 53 -10 99 10 28 8 35 -15 63 -31 37 -33 63
-6 107 19 30 19 34 4 57 -12 19 -14 33 -7 62 5 24 5 52 -1 76 -8 30 -7 43 6
65 15 25 15 29 -3 51 -25 31 -25 83 1 106 21 19 26 64 14 124 -5 25 -11 31
-33 31 -35 0 -96 31 -96 50 0 8 11 20 24 27 34 17 49 50 43 95 -3 23 1 49 8
63 12 23 10 28 -32 67 -25 24 -55 61 -67 83 -19 34 -31 43 -79 58 -32 10 -66
15 -75 11 -11 -4 -32 4 -58 20 -31 21 -56 28 -118 33 -77 6 -79 5 -102 -21
-21 -24 -29 -27 -61 -22 l-38 6 20 -32 c44 -73 11 -111 -47 -53 -49 49 -63 55
-126 55 -102 0 -177 41 -177 97 0 16 -6 23 -19 23 -23 0 -71 54 -71 80 0 9 7
37 15 60 18 52 19 60 2 60 -7 0 -22 -30 -34 -67z m-875 -569 c27 -19 28 -44 2
-51 -11 -3 -20 -12 -20 -20 0 -7 -9 -32 -20 -53 -15 -30 -27 -40 -44 -40 -38
0 -48 22 -41 85 6 42 13 60 33 75 30 24 60 25 90 4z m-1100 -290 c47 -30 12
-64 -67 -64 -34 0 -37 -2 -36 -27 0 -36 -35 -43 -64 -14 -38 38 -18 114 32
124 35 7 110 -4 135 -19z m2168 -3 c22 -10 50 -30 61 -45 23 -28 123 -258 123
-281 0 -18 -54 -29 -79 -15 -25 13 -41 43 -71 133 -27 84 -61 127 -101 127
-49 0 -62 -33 -67 -181 -5 -138 -9 -146 -53 -110 -23 18 -24 25 -24 143 0 148
15 188 85 225 52 28 72 28 126 4z m-1559 -180 c58 -27 95 -83 123 -186 22 -82
22 -88 7 -121 -9 -19 -23 -34 -31 -34 -26 0 -61 54 -85 132 -38 121 -88 162
-143 119 -35 -28 -51 -99 -47 -204 4 -76 2 -82 -15 -82 -27 0 -65 79 -72 152
-11 106 29 187 111 224 51 24 99 23 152 0z m2002 -298 c11 -10 24 -32 27 -50
6 -30 5 -32 -37 -43 -34 -9 -52 -9 -76 -1 -21 8 -39 9 -50 3 -30 -16 -144 -23
-159 -11 -38 32 5 83 70 84 23 1 48 5 56 10 8 6 40 13 70 16 30 3 60 7 66 8 7
0 21 -7 33 -16z m-1228 -190 c51 -47 58 -62 65 -135 14 -126 15 -225 3 -265
-13 -47 -58 -103 -82 -103 -35 0 -112 67 -139 121 -49 97 -62 261 -27 339 48
106 100 118 180 43z m-984 -133 c33 -12 57 -52 48 -81 -7 -20 -40 -26 -50 -9
-11 18 -26 10 -36 -19 -11 -31 -46 -52 -77 -46 -29 5 -50 -11 -34 -27 41 -41
-26 -81 -70 -41 -52 47 7 153 86 153 19 0 26 5 26 18 0 19 24 45 50 55 22 8
24 8 57 -3z m2248 -170 c27 -30 12 -61 -51 -103 -64 -42 -83 -45 -108 -18 -23
25 -17 55 12 59 13 2 27 14 32 27 9 24 52 52 81 54 9 1 24 -8 34 -19z"/>
<path d="M3666 1031 c-14 -22 -22 -135 -14 -192 8 -65 38 -141 58 -154 25 -15
43 23 51 110 7 84 6 89 -25 163 -30 72 -55 98 -70 73z"/>
<path d="M0 2006 l0 -127 61 -97 c34 -53 74 -111 90 -127 16 -17 29 -37 29
-44 0 -16 21 -52 270 -451 108 -173 268 -432 355 -575 87 -143 184 -298 215
-345 31 -47 76 -120 100 -163 l44 -77 83 0 c79 0 83 1 74 19 -6 10 -94 153
-197 317 -103 164 -259 416 -347 559 -87 143 -239 385 -336 538 -97 152 -233
369 -302 482 -69 113 -129 208 -132 212 -4 3 -7 -51 -7 -121z"/>
<path d="M0 1299 l0 -432 38 7 c163 28 381 56 399 51 13 -3 29 -18 37 -33 8
-15 28 -44 45 -66 17 -21 31 -49 31 -61 0 -50 -38 -61 -310 -95 -91 -11 -182
-23 -202 -26 l-38 -6 0 -319 0 -319 539 0 539 0 -31 57 c-17 32 -54 92 -82
133 -29 41 -151 237 -272 435 -121 198 -266 434 -323 525 -101 161 -232 375
-254 415 -18 32 -109 165 -112 165 -2 0 -4 -194 -4 -431z"/>
<path d="M355 843 c-16 -2 -100 -15 -186 -29 -86 -13 -159 -24 -163 -24 -3 0
-6 -16 -6 -35 0 -25 4 -35 15 -35 9 0 92 11 186 25 157 24 219 38 219 49 0 14
-21 56 -27 55 -5 -1 -21 -4 -38 -6z"/>
</g>
</svg>
